<svg width="250" height="40" viewBox="0 0 250 40" fill="none" xmlns="http://www.w3.org/2000/svg">
<path d="M14.7802 26.8049C14.0159 28.1644 12.9891 29.48 11.6999 30.7544C10.4081 32.0288 8.99277 32.6659 7.44621 32.6659C5.80957 32.6659 4.47402 32.052 3.43954 30.824C2.40249 29.5961 1.88525 27.78 1.88525 25.3731C1.88525 23.7298 2.10399 21.8699 2.53888 19.7984C2.97377 17.7243 3.48329 15.9262 4.06486 14.4016C4.66444 12.8538 5.35924 11.5665 6.14925 10.5424C6.93926 9.51824 7.73442 9.00488 8.53472 9.00488C9.33503 9.00488 9.91917 9.37378 10.3489 10.1142C10.7761 10.852 10.9897 11.7703 10.9897 12.8667C10.9897 13.2717 10.9305 13.6845 10.8121 14.0998C10.6937 14.5177 10.5625 14.8686 10.4158 15.1549C10.2691 15.4413 10.1611 15.5831 10.089 15.5831C9.94233 15.5831 9.87028 15.4748 9.87028 15.2607C9.87028 15.1884 9.90116 15.0285 9.96549 14.7783C10.0298 14.528 10.0607 14.3191 10.0607 14.154C10.0607 13.5581 10.0067 12.9983 9.89601 12.4746C9.80594 12.0231 9.62324 11.6465 9.35047 11.3498C9.07769 11.0532 8.77919 10.9035 8.4498 10.9035C7.13998 10.9035 5.91508 12.5597 4.76995 15.8721C4.31447 17.2058 3.93362 18.7072 3.62482 20.3762C3.31602 22.0453 3.16162 23.6525 3.16162 25.2029C3.16162 26.276 3.32889 27.2537 3.66599 28.1334C4.0031 29.0157 4.48431 29.7173 5.10963 30.241C5.73752 30.7647 6.46834 31.0278 7.30467 31.0278C8.62994 31.0278 9.83425 30.6125 10.9176 29.7767C11.9984 28.9434 13.0663 27.8703 14.1214 26.5598C14.1574 26.5133 14.2861 26.2451 14.5023 25.7549C14.721 25.2674 14.8831 25.0223 14.9938 25.0223C15.1044 25.0223 15.1765 25.0584 15.2125 25.1306C15.2485 25.2029 15.2665 25.3344 15.2665 25.5227C15.2665 25.7601 15.1018 26.1909 14.775 26.81L14.7802 26.8049Z" stroke="#F7941D" stroke-width="2" stroke-miterlimit="10"/>
<path d="M32.3637 23.0177C32.0369 23.1596 31.6406 23.2499 31.1774 23.286C30.7142 23.3221 30.4105 23.3402 30.2638 23.3402C30.2458 24.078 30.2098 24.9009 30.1558 25.8064C30.1017 26.7119 30.0554 27.4626 30.0194 28.0585L29.937 29.1677L29.883 30.3106L29.7183 33.0631C29.6462 34.2781 29.3452 34.887 28.8176 34.887C28.6169 34.887 28.4213 34.5825 28.2309 33.9763C28.0405 33.3675 27.9453 32.8748 27.9453 32.493C27.9453 32.3975 28.0173 32.2066 28.164 31.9203C28.3081 31.6339 28.4008 31.2779 28.4368 30.8471C28.5088 30.1816 28.5912 29.0723 28.6812 27.5219C28.7713 25.9741 28.8356 24.6739 28.8717 23.6265C28.164 23.6988 27.3997 23.8045 26.5814 23.949C26.2186 23.998 25.4003 24.1038 24.129 24.2715C22.8578 24.4391 21.8568 24.5449 21.1311 24.5939C21.0591 26.1675 20.9767 28.0843 20.8866 30.3493C20.7966 32.6117 20.7503 33.9944 20.7503 34.4948C20.7503 34.6857 20.7734 34.936 20.8172 35.2455C20.8635 35.5551 20.8841 35.7924 20.8841 35.9601C20.8841 36.1742 20.7606 36.3883 20.5161 36.6025C20.2716 36.8166 20.076 36.9249 19.9294 36.9249C19.7467 36.9249 19.5974 36.7701 19.479 36.4606C19.3607 36.151 19.3015 35.7924 19.3015 35.3874C19.3015 35.1733 19.3195 34.8199 19.3555 34.3323C19.3915 33.8448 19.4199 33.4217 19.4379 33.0631C19.5099 32.4208 19.5562 31.8971 19.5743 31.4895C19.6643 30.0835 19.7389 28.7266 19.793 27.4135C19.847 26.1031 19.883 25.2208 19.9011 24.7693C18.7559 25.0325 17.6751 25.1615 16.6561 25.1615C16.3113 25.1615 16.0153 25.048 15.7709 24.8209C15.5264 24.5939 15.4029 24.2663 15.4029 23.8381C15.4029 23.5285 15.4621 23.2963 15.5805 23.1416C15.6988 22.9868 15.9381 22.9094 16.3036 22.9094L17.7472 22.9455C18.6916 22.9945 19.4559 23.0177 20.0375 23.0177C20.1275 20.9927 20.1738 19.3726 20.1738 18.1576C20.1738 15.3947 20.1558 12.9156 20.1198 10.7228V9.39946C20.1198 9.04088 20.2253 8.74937 20.4337 8.52494C20.6422 8.29792 20.8841 8.18442 21.1568 8.18442C21.3576 8.18442 21.494 8.38821 21.566 8.79323C21.6381 9.19824 21.6741 9.65227 21.6741 10.1527C21.6741 10.6532 21.6278 11.7496 21.5377 13.3696C21.4296 16.1351 21.373 17.6003 21.373 17.7654L21.2366 22.8758C22.7626 22.8294 25.3539 22.5173 29.0055 21.9471C29.0775 21.2558 29.2062 19.4448 29.3863 16.5143C29.4584 14.9665 29.5227 13.834 29.5768 13.1194L29.7415 10.3307C29.9782 6.82749 30.0966 4.63474 30.0966 3.75506C30.0966 3.44549 30.1866 3.19526 30.3693 3.00436C30.5521 2.81347 30.7605 2.71802 30.9972 2.71802C31.324 2.71802 31.4887 3.13593 31.4887 3.96918C31.4887 4.49286 31.3987 5.88848 31.216 8.15088C31.0152 11.1046 30.9072 12.7505 30.8892 13.0833C30.7811 14.9174 30.6756 16.6691 30.5752 18.3381C30.4749 20.0072 30.4079 21.1268 30.3719 21.6969C30.6987 21.6247 30.9895 21.5189 31.2443 21.3745C31.5711 21.2326 31.8258 21.1603 32.0086 21.1603C32.1913 21.1603 32.3997 21.3022 32.6364 21.5886C32.8732 21.8749 32.9916 22.0761 32.9916 22.1974C32.9916 22.5792 32.7831 22.8526 32.3637 23.0203V23.0177Z" stroke="#F7941D" stroke-width="2" stroke-miterlimit="10"/>
<path d="M52.1577 10.0779C51.8129 10.2688 51.3034 10.4468 50.6317 10.6145C49.8855 10.8054 48.9411 10.9886 47.7959 11.1692C46.6508 11.3472 45.7244 11.4607 45.0142 11.5097C44.9601 12.5338 44.8881 15.4902 44.7954 20.3735C44.7054 25.2595 44.6488 28.8685 44.6307 31.2031C45.6112 31.1799 46.903 31.0948 48.501 30.9529C49.8469 30.8575 50.6009 30.811 50.763 30.811C51.0898 30.811 51.3857 30.9065 51.6482 31.0974C51.9107 31.2883 52.0445 31.5849 52.0445 31.99C52.0445 32.3227 52.0033 32.5627 51.921 32.7045C51.8386 32.8464 51.6611 32.9187 51.3883 32.9187C51.2802 32.9187 50.9791 32.8825 50.4876 32.8103C50.1248 32.7149 49.816 32.6684 49.5612 32.6684C48.7069 32.6684 46.9982 32.7407 44.4352 32.8825C44.3451 33.0502 44.2396 33.174 44.1212 33.2566C44.0029 33.3391 43.8973 33.3804 43.8073 33.3804C43.6992 33.3804 43.5885 33.3443 43.4805 33.2721C43.3724 33.1998 43.3081 33.0941 43.29 32.9496L42.0626 33.1276C40.6447 33.3649 39.5896 33.4862 38.8999 33.4862C38.3004 33.4862 37.8449 33.3185 37.5361 32.9857C37.3714 32.7948 37.2916 32.4491 37.2916 31.9487C37.2916 31.8068 37.3508 31.6262 37.4692 31.4121C37.5876 31.198 37.7111 31.0896 37.8372 31.0896C37.8732 31.0896 38.0147 31.1567 38.2592 31.2857C38.5037 31.4173 38.7353 31.4818 38.954 31.4818C39.6256 31.4818 40.6164 31.4353 41.9262 31.3399L43.1794 31.2315L43.3441 25.9767C43.3621 25.4298 43.3801 24.9345 43.3981 24.4933C43.4161 24.0522 43.4264 23.6781 43.4264 23.3686L43.6992 11.6799C41.8078 11.8476 40.9097 11.9302 40.9998 11.9302C39.147 12.1211 38.0559 12.2165 37.7291 12.2165C37.4203 12.2165 37.1295 12.0849 36.8567 11.8244C36.584 11.5613 36.4476 11.2285 36.4476 10.8235C36.4476 10.5371 36.5068 10.3101 36.6251 10.145C36.7435 9.97733 36.903 9.89478 37.1012 9.89478C37.2453 9.89478 37.392 9.90767 37.5361 9.93089C37.6802 9.95411 37.8269 9.97991 37.971 10.0031C38.4239 10.1218 38.8613 10.1811 39.2808 10.1811C39.7003 10.1811 40.4439 10.1398 41.5711 10.0573C42.6982 9.97475 43.4522 9.92057 43.833 9.89736C43.851 9.58779 43.9334 9.3324 44.0775 9.1286C44.2216 8.92739 44.4146 8.8242 44.6488 8.8242C44.7568 8.8242 44.8495 8.91965 44.9215 9.11055C44.9936 9.30144 45.0296 9.51556 45.0296 9.75289C46.0847 9.70646 47.9838 9.39431 50.7269 8.8242C50.9457 8.77776 51.185 8.6462 51.4501 8.43208C51.7125 8.21797 51.8644 8.10962 51.9004 8.10962C52.0831 8.10962 52.2555 8.20507 52.4176 8.39597C52.5823 8.58686 52.6621 8.8242 52.6621 9.11055C52.6621 9.56457 52.4897 9.88446 52.1448 10.0754L52.1577 10.0779Z" stroke="#F7941D" stroke-width="2" stroke-miterlimit="10"/>
<path d="M70.5312 26.8049C69.7669 28.1644 68.7402 29.48 67.451 30.7544C66.1591 32.0288 64.7438 32.6659 63.1972 32.6659C61.5606 32.6659 60.2251 32.052 59.1906 30.824C58.1535 29.5961 57.6363 27.78 57.6363 25.3731C57.6363 23.7298 57.855 21.8699 58.2899 19.7984C58.7248 17.7243 59.2343 15.9262 59.8159 14.4016C60.4155 12.8538 61.1103 11.5665 61.9003 10.5424C62.6903 9.51824 63.4855 9.00488 64.2858 9.00488C65.0861 9.00488 65.6702 9.37378 66.1 10.1142C66.5271 10.852 66.7407 11.7703 66.7407 12.8667C66.7407 13.2717 66.6815 13.6845 66.5632 14.0998C66.4448 14.5177 66.3135 14.8686 66.1669 15.1549C66.0202 15.4413 65.9121 15.5831 65.84 15.5831C65.6934 15.5831 65.6213 15.4748 65.6213 15.2607C65.6213 15.1884 65.6522 15.0285 65.7165 14.7783C65.7809 14.528 65.8117 14.3191 65.8117 14.154C65.8117 13.5581 65.7577 12.9983 65.647 12.4746C65.557 12.0231 65.3743 11.6465 65.1015 11.3498C64.8287 11.0532 64.5302 10.9035 64.2008 10.9035C62.891 10.9035 61.6661 12.5597 60.521 15.8721C60.0655 17.2058 59.6847 18.7072 59.3759 20.3762C59.0671 22.0453 58.9127 23.6525 58.9127 25.2029C58.9127 26.276 59.0799 27.2537 59.417 28.1334C59.7541 29.0157 60.2353 29.7173 60.8607 30.241C61.4886 30.7647 62.2194 31.0278 63.0557 31.0278C64.381 31.0278 65.5853 30.6125 66.6687 29.7767C67.7495 28.9434 68.8174 27.8703 69.8725 26.5598C69.9085 26.5133 70.0371 26.2451 70.2533 25.7549C70.472 25.2674 70.6342 25.0223 70.7448 25.0223C70.8555 25.0223 70.9275 25.0584 70.9635 25.1306C70.9996 25.2029 71.0176 25.3344 71.0176 25.5227C71.0176 25.7601 70.8529 26.1909 70.5261 26.81L70.5312 26.8049Z" stroke="#F7941D" stroke-width="2" stroke-miterlimit="10"/>
<path d="M87.6799 29.6296C87.5718 29.8669 87.4534 29.9881 87.3247 29.9881C86.4344 29.9881 84.5353 29.191 81.6274 27.5942L80.8914 27.1659C79.8544 26.5932 79.0515 26.165 78.4776 25.8787C77.9038 25.5923 77.3557 25.355 76.8282 25.1641C76.8282 28.1179 76.7741 30.1919 76.6635 31.3838C76.4627 32.3357 76.2003 32.8129 75.8734 32.8129C75.7088 32.8129 75.5595 32.7536 75.4231 32.6349C75.2867 32.5163 75.2198 32.3615 75.2198 32.1706C75.2198 31.7423 75.2481 31.1593 75.3022 30.419C75.4102 28.8943 75.4669 27.5839 75.4669 26.4875V24.9861C75.2842 24.8184 75.1529 24.6714 75.0706 24.5398C74.9882 24.4082 74.947 24.2612 74.947 24.0935C74.947 23.8794 74.9959 23.6833 75.0963 23.5028C75.1967 23.3248 75.3099 23.1571 75.436 23.0023C75.5621 22.8475 75.6547 22.7237 75.7088 22.6282C75.7268 22.1278 75.7371 21.2584 75.7371 20.0202C75.7371 16.9219 75.4 13.6457 74.7283 10.1915L74.6202 9.4769C74.6202 9.14411 74.7257 8.88098 74.9342 8.69008C75.1426 8.49919 75.3845 8.40374 75.6573 8.40374C75.858 8.40374 76.0613 8.9171 76.2697 9.94124C76.4782 10.9654 76.6454 12.2707 76.7741 13.8547C76.9002 15.4386 76.9645 17.0303 76.9645 18.6271V21.0211C77.2193 20.6625 77.7906 19.8422 78.6809 18.5549C79.5713 17.2676 80.4437 15.9803 81.298 14.6956C82.7339 12.4797 83.843 10.501 84.6227 8.76232C84.8235 8.28507 85.0679 7.66594 85.3587 6.90493C85.6315 6.16713 85.8039 5.79565 85.876 5.79565C86.0767 5.79565 86.177 6.082 86.177 6.6547C86.177 7.34606 86.0947 8.00646 85.9326 8.63849C85.7679 9.27052 85.5337 9.94382 85.2249 10.6584C84.7154 11.827 84.1287 12.975 83.4673 14.1075C82.8034 15.24 81.9619 16.5195 80.9455 17.9487C80.5646 18.4723 80.2275 18.9264 79.9367 19.3082C79.6459 19.69 79.3912 20.0356 79.1725 20.3452C78.228 21.5835 77.4741 22.6205 76.9105 23.4537C77.1472 23.5724 77.6954 23.8355 78.56 24.2406C79.4221 24.6456 80.5466 25.1589 81.9259 25.7781C82.9063 26.2321 83.7247 26.5958 84.3783 26.8693C85.0319 27.1427 85.5955 27.3878 86.069 27.6019C86.177 27.6509 86.3057 27.7025 86.4498 27.7619C86.5939 27.8212 86.7509 27.8857 86.913 27.9579C87.5306 28.221 87.8394 28.5074 87.8394 28.817C87.8394 29.1265 87.7854 29.4 87.6747 29.6399L87.6799 29.6296Z" stroke="#F7941D" stroke-width="2" stroke-miterlimit="10"/>
<path d="M117.579 31.9461C117.451 31.9461 116.601 30.6666 115.029 28.1049C113.457 25.5433 112.162 23.3583 111.143 21.5447C110.997 21.2816 110.534 20.4122 109.754 18.9366C108.609 16.7439 107.901 15.4231 107.628 14.969L107.574 17.7216L107.546 20.4019C107.546 22.0942 107.533 23.9284 107.505 25.907C107.476 27.8856 107.446 29.4567 107.41 30.6253C107.392 30.9116 107.296 31.1748 107.124 31.4121C106.951 31.6494 106.774 31.7707 106.591 31.7707C106.39 31.7707 106.252 31.6933 106.169 31.5385C106.087 31.3837 106.046 31.0793 106.046 30.6279C106.046 30.3415 106.082 29.4618 106.154 27.9837C106.318 25.244 106.398 22.9429 106.398 21.0855C106.398 19.6074 106.416 18.2092 106.452 16.8858C106.488 15.5624 106.506 14.7472 106.506 14.4376L106.535 13.4006V13.2922C106.535 13.0291 106.565 12.8227 106.63 12.668C106.694 12.5132 106.825 12.4358 107.026 12.4358H107.162C107.363 12.4358 107.757 12.9079 108.349 13.8469C108.938 14.7885 109.689 16.068 110.598 17.6881C110.799 18.0208 110.989 18.3485 111.169 18.6709C111.352 18.9934 111.524 19.2952 111.686 19.5816C112.723 21.3203 113.266 22.2387 113.323 22.3341C115.904 26.6474 117.312 29.1007 117.548 29.6966C117.512 29.5057 117.448 29.0646 117.358 28.3732C117.268 27.6818 117.18 26.7764 117.098 25.6568C117.016 24.5372 116.975 23.3815 116.975 22.1896C116.975 20.0691 116.82 17.2701 116.511 13.7901C116.421 12.6473 116.375 11.9431 116.375 11.6825C116.375 10.777 116.766 10.323 117.548 10.323C117.731 10.323 117.865 10.5681 117.958 11.0556C118.048 11.5432 118.112 12.5751 118.148 14.1487C118.184 15.7223 118.202 18.235 118.202 21.6918C118.202 22.7881 118.233 23.8613 118.297 24.9087C118.362 25.9586 118.421 26.8873 118.475 27.6973C118.565 28.8169 118.611 29.6631 118.611 30.2357L118.64 31.523C118.64 31.8094 118.284 31.9513 117.577 31.9513L117.579 31.9461Z" stroke="#F7941D" stroke-width="2" stroke-miterlimit="10"/>
<path d="M151.689 10.9346C151.47 11.2209 151.226 11.3989 150.953 11.4711C149.972 11.7575 148.853 11.9123 147.6 11.9355L147.708 13.0448C147.981 15.6657 148.212 18.1552 148.403 20.5156C148.593 22.8734 148.688 25.1384 148.688 27.308C148.688 29.8825 148.315 31.6986 147.571 32.7589C146.825 33.8191 145.626 34.3506 143.974 34.3506C142.919 34.3506 141.702 34.0281 140.32 33.3858C138.938 32.7434 137.752 31.9437 136.763 30.9918C135.773 30.0399 135.279 29.1576 135.279 28.3476C135.279 27.989 135.415 27.6459 135.688 27.3105C135.961 26.9778 136.269 26.6914 136.614 26.4515C136.959 26.2142 137.204 26.0929 137.35 26.0929C137.587 26.0929 137.741 26.1755 137.813 26.3432C137.903 26.534 137.95 26.6759 137.95 26.7714C137.95 26.8901 137.885 26.9984 137.759 27.0938C137.469 27.2847 137.268 27.4395 137.16 27.5582C137.052 27.6769 136.995 27.8574 136.995 28.0948C136.995 28.6675 137.363 29.3098 138.099 30.0244C138.835 30.739 139.738 31.3529 140.811 31.8663C141.884 32.3797 142.883 32.6351 143.809 32.6351C144.61 32.6351 145.253 32.5164 145.744 32.2765C146.236 32.0391 146.617 31.5309 146.89 30.757C147.162 29.9831 147.299 28.8222 147.299 27.2718C147.299 24.6741 146.99 20.4201 146.372 14.5126C146.318 13.9657 146.267 13.4704 146.223 13.0293C146.177 12.5882 146.146 12.2141 146.128 11.9045C144.893 11.9045 143.902 11.8916 143.156 11.8684C141.774 11.822 140.611 11.7136 139.666 11.546C139.393 11.4995 139.172 11.3628 138.997 11.1358C138.825 10.9088 138.737 10.6302 138.737 10.2948C138.737 10.1529 138.791 10.0084 138.902 9.86656C139.01 9.72468 139.139 9.65245 139.283 9.65245C139.646 9.65245 140.065 9.68857 140.536 9.7608C141.846 9.92848 143.261 10.011 144.79 10.011H145.881C145.809 9.3919 145.78 8.95077 145.798 8.68764C145.816 8.47352 145.922 8.26973 146.112 8.07883C146.303 7.88793 146.498 7.79248 146.699 7.79248C146.918 7.79248 147.09 8.0066 147.216 8.43483C147.27 8.62573 147.36 9.14941 147.489 10.0084C148.343 10.0084 149.02 9.96717 149.519 9.88204C150.019 9.79949 150.304 9.74532 150.379 9.7221C150.888 9.62665 151.223 9.58022 151.388 9.58022C151.57 9.58022 151.72 9.61633 151.838 9.68856C151.956 9.7608 152.016 9.86656 152.016 10.011C152.016 10.3438 151.908 10.6534 151.689 10.9397V10.9346Z" stroke="#F7941D" stroke-width="2" stroke-miterlimit="10"/>
<path d="M169.247 23.0177C168.92 23.1596 168.523 23.2499 168.06 23.286C167.597 23.3221 167.293 23.3402 167.147 23.3402C167.129 24.078 167.093 24.9009 167.039 25.8064C166.985 26.7119 166.938 27.4626 166.902 28.0585L166.82 29.1677L166.766 30.3106L166.601 33.0631C166.529 34.2781 166.228 34.887 165.701 34.887C165.5 34.887 165.304 34.5825 165.114 33.9763C164.923 33.3675 164.828 32.8748 164.828 32.493C164.828 32.3975 164.9 32.2066 165.047 31.9203C165.191 31.6339 165.284 31.2779 165.32 30.8471C165.392 30.1816 165.474 29.0723 165.564 27.5219C165.654 25.9741 165.719 24.6739 165.755 23.6265C165.047 23.6988 164.283 23.8045 163.464 23.949C163.101 23.998 162.283 24.1038 161.012 24.2715C159.741 24.4391 158.74 24.5449 158.014 24.5939C157.942 26.1675 157.86 28.0843 157.77 30.3493C157.679 32.6117 157.633 33.9944 157.633 34.4948C157.633 34.6857 157.656 34.936 157.7 35.2455C157.746 35.5551 157.77 35.7924 157.77 35.9601C157.77 36.1742 157.646 36.3883 157.402 36.6025C157.157 36.8166 156.961 36.9249 156.815 36.9249C156.632 36.9249 156.483 36.7701 156.364 36.4606C156.246 36.151 156.187 35.7924 156.187 35.3874C156.187 35.1733 156.205 34.8199 156.241 34.3323C156.277 33.8448 156.305 33.4217 156.323 33.0631C156.395 32.4208 156.442 31.8971 156.46 31.4895C156.55 30.0835 156.624 28.7266 156.678 27.4135C156.732 26.1031 156.768 25.2208 156.787 24.7693C155.641 25.0325 154.561 25.1615 153.542 25.1615C153.197 25.1615 152.901 25.048 152.656 24.8209C152.412 24.5939 152.288 24.2663 152.288 23.8381C152.288 23.5285 152.348 23.2963 152.466 23.1416C152.584 22.9868 152.824 22.9094 153.189 22.9094L154.633 22.9455C155.577 22.9945 156.341 23.0177 156.923 23.0177C157.013 20.9927 157.059 19.3726 157.059 18.1576C157.059 15.3947 157.041 12.9156 157.005 10.7228V9.39946C157.005 9.04088 157.111 8.74937 157.319 8.52494C157.528 8.29792 157.77 8.18442 158.042 8.18442C158.243 8.18442 158.379 8.38821 158.451 8.79323C158.523 9.19824 158.56 9.65227 158.56 10.1527C158.56 10.6532 158.513 11.7496 158.423 13.3696C158.315 16.1351 158.258 17.6003 158.258 17.7654L158.122 22.8758C159.648 22.8294 162.239 22.5173 165.891 21.9471C165.963 21.2558 166.092 19.4448 166.272 16.5143C166.344 14.9665 166.408 13.834 166.462 13.1194L166.627 10.3307C166.864 6.82749 166.982 4.63474 166.982 3.75506C166.982 3.44549 167.072 3.19526 167.255 3.00436C167.437 2.81347 167.646 2.71802 167.883 2.71802C168.209 2.71802 168.374 3.13593 168.374 3.96918C168.374 4.49286 168.284 5.88848 168.101 8.15088C167.901 11.1046 167.793 12.7505 167.775 13.0833C167.667 14.9174 167.561 16.6691 167.461 18.3381C167.36 20.0072 167.293 21.1268 167.257 21.6969C167.584 21.6247 167.875 21.5189 168.13 21.3745C168.457 21.2326 168.711 21.1603 168.894 21.1603C169.077 21.1603 169.285 21.3022 169.522 21.5886C169.759 21.8749 169.877 22.0761 169.877 22.1974C169.877 22.5792 169.669 22.8526 169.249 23.0203L169.247 23.0177Z" stroke="#F7941D" stroke-width="2" stroke-miterlimit="10"/>
<path d="M189.228 24.3026C188.173 26.5417 186.82 28.3527 185.165 29.7354C183.51 31.1181 181.84 31.8095 180.15 31.8095C179.169 31.8095 178.24 31.5412 177.368 31.0046C176.496 30.4681 175.788 29.6761 175.242 28.6287C174.697 27.5814 174.424 26.3173 174.424 24.8391C174.424 22.3136 174.923 19.6978 175.924 16.9943C176.923 14.2907 178.315 11.7471 180.096 9.36348C180.278 9.14937 180.451 9.0049 180.613 8.93525C180.778 8.86302 180.968 8.8269 181.184 8.8269C181.367 8.8269 181.542 8.88624 181.717 9.0049C181.889 9.12357 181.977 9.26803 181.977 9.43314C181.977 9.52859 181.946 9.66531 181.882 9.84331C181.817 10.0213 181.776 10.1348 181.758 10.1838C181.866 10.1838 182 10.1658 182.154 10.1297C182.309 10.0935 182.612 10.0755 183.068 10.0755C183.595 10.0755 184.308 10.189 185.209 10.416C186.11 10.643 186.768 10.8752 187.185 11.1125C188.366 11.8039 189.267 12.6913 189.885 13.7748C190.502 14.8583 190.811 16.0217 190.811 17.26C190.811 19.7133 190.283 22.0608 189.231 24.3026H189.228ZM188.902 14.6338C188.41 13.7645 187.684 13.0421 186.719 12.472C186.192 12.1625 185.528 12.0077 184.73 12.0077C184.475 12.0077 184.131 12.0309 183.693 12.0799L182.684 12.116C181.812 12.116 181.375 11.8787 181.375 11.4015C181.375 11.2338 181.382 11.079 181.403 10.9371C181.421 10.7952 181.439 10.6998 181.457 10.6508C181.076 10.6508 180.765 10.7926 180.531 11.079C179.041 13.1041 177.89 15.2607 177.082 17.5489C176.274 19.8371 175.87 22.066 175.87 24.2329C175.87 26.258 176.256 27.731 177.028 28.6468C177.8 29.5652 178.858 30.0218 180.204 30.0218C181.73 30.0218 183.225 29.4491 184.689 28.3063C186.151 27.1635 187.342 25.6621 188.261 23.8021C189.18 21.9447 189.638 20.0125 189.638 18.0107C189.638 16.6279 189.393 15.5032 188.902 14.6338Z" stroke="#F7941D" stroke-width="2" stroke-miterlimit="10"/>
<path d="M210.682 30.3081C210.499 30.7131 210.309 30.9169 210.111 30.9169C209.928 30.9169 209.756 30.8756 209.594 30.7931C209.429 30.7105 209.184 30.548 208.858 30.3107C207.713 29.4284 206.212 28.5719 204.359 27.7361C203.541 27.3775 202.574 27.0035 201.457 26.6114C200.34 26.2192 199.462 25.9277 198.827 25.7368L199.017 30.3468C199.035 30.9891 199.1 31.5334 199.208 31.972C199.316 32.4131 199.372 32.6917 199.372 32.813C199.372 33.0761 199.272 33.2954 199.071 33.4734C198.871 33.6514 198.662 33.7417 198.443 33.7417C198.171 33.7417 197.998 33.4914 197.926 32.991C197.926 32.942 197.903 32.7278 197.859 32.3486C197.813 31.9668 197.79 31.4328 197.79 30.7389C197.79 30.2874 197.754 29.3226 197.682 27.8445C197.664 27.344 197.646 26.8616 197.628 26.3972C197.61 25.9329 197.599 25.5227 197.599 25.1641C197.545 25.0919 197.476 25.0094 197.396 24.9139C197.314 24.8185 197.247 24.6869 197.193 24.5218C197.139 24.3077 197.092 24.0807 197.056 23.8433C197.02 23.606 197.002 23.4254 197.002 23.3068C197.002 23.1391 197.038 23.0101 197.11 22.9146C197.182 22.8192 197.293 22.7134 197.437 22.5922C197.329 16.6356 197.273 13.2278 197.273 12.3688C197.273 11.6052 197.28 10.9035 197.301 10.2612C197.319 9.61884 197.329 9.18803 197.329 8.97391C197.221 8.99713 196.894 9.05646 196.349 9.15191C195.803 9.24736 195.368 9.34281 195.039 9.43826C193.876 9.79684 192.991 10.1348 192.381 10.4572C191.771 10.7797 191.187 11.1434 190.623 11.5485C190.458 11.6903 190.301 11.8038 190.147 11.889C189.993 11.9715 189.843 12.0154 189.697 12.0154C189.55 12.0154 189.424 11.9251 189.316 11.7471C189.208 11.5691 189.151 11.3472 189.151 11.0867C189.151 10.6352 189.733 10.109 190.896 9.51307C192.059 8.91716 193.322 8.42959 194.686 8.0478C195.451 7.83368 196.421 7.64794 197.605 7.49316C198.786 7.33838 199.884 7.26099 200.904 7.26099C202.648 7.26099 204.133 7.51122 205.361 8.01168C206.588 8.51214 207.514 9.2164 208.142 10.1193C208.77 11.0248 209.084 12.0618 209.084 13.2278C209.084 14.7292 208.757 16.0165 208.104 17.0871C207.45 18.1602 206.58 19.0889 205.499 19.8758C204.419 20.6626 202.949 21.5551 201.097 22.5561C200.623 22.8424 200.157 23.1055 199.691 23.3429C199.228 23.5802 198.914 23.7479 198.75 23.8433C198.75 23.9852 198.757 24.0936 198.778 24.1658C200.741 24.7385 202.677 25.3937 204.586 26.1315L205.157 26.3457C207.139 27.1325 208.6 27.7464 209.547 28.1876C210.492 28.6287 210.965 28.9924 210.965 29.2788C210.965 29.5651 210.875 29.9108 210.692 30.3158L210.682 30.3081ZM206.92 11.0428C206.392 10.3773 205.597 9.83295 204.534 9.41762C203.472 8.99971 202.185 8.79333 200.677 8.79333C199.55 8.79333 198.842 8.81655 198.551 8.86556C198.533 9.03324 198.51 9.42536 198.482 10.0445C198.454 10.6636 198.441 11.2827 198.441 11.9019L198.549 17.6211L198.657 22.053C198.822 22.0298 199.143 21.9163 199.625 21.7125C200.106 21.5113 200.51 21.3126 200.837 21.1217C203.145 19.9067 204.866 18.6865 206.004 17.4586C207.139 16.2306 207.707 14.8195 207.707 13.2227C207.707 12.4359 207.445 11.711 206.917 11.0428H206.92Z" stroke="#F7941D" stroke-width="2" stroke-miterlimit="10"/>
<path d="M230.229 37.0101C230.319 37.3558 230.42 37.6061 230.53 37.7608C230.638 37.9156 230.695 38.0523 230.695 38.171C230.695 38.3387 230.628 38.4677 230.492 38.5631C230.355 38.6586 230.206 38.705 230.041 38.705C229.642 38.705 229.31 38.5554 229.045 38.2587C228.783 37.9595 228.649 37.5261 228.649 36.9534C228.649 33.9506 228.667 31.4973 228.703 29.5909L228.757 26.4101C228.811 24.1942 228.84 22.538 228.84 21.4416C227.023 26.7558 225.242 30.7647 223.497 33.4682C221.753 36.1717 219.799 37.5261 217.635 37.5261C216.035 37.5261 214.864 36.8837 214.118 35.5965C213.371 34.3092 213.001 32.3073 213.001 29.5909C213.001 25.9458 213.629 22.378 214.882 18.8851C216.135 15.3948 217.749 12.5519 219.72 10.3592C221.691 8.16644 223.685 7.07007 225.703 7.07007C226.338 7.07007 226.771 7.3332 226.997 7.85688C227.223 8.38056 227.337 8.93004 227.337 9.50015C227.337 10.0703 227.296 10.5681 227.213 10.9113C227.131 11.2569 227.036 11.4298 226.928 11.4298C226.837 11.4298 226.768 11.3214 226.724 11.1073C226.678 10.8932 226.629 10.5114 226.575 9.9645C226.521 9.44082 226.428 9.05386 226.302 8.80363C226.176 8.5534 225.947 8.42957 225.62 8.42957C223.948 8.42957 222.226 9.50273 220.453 11.6465C218.68 13.7902 217.208 16.5015 216.037 19.7777C214.864 23.0539 214.28 26.2528 214.28 29.3742C214.28 31.3528 214.529 32.8955 215.028 34.0022C215.528 35.1115 216.434 35.6635 217.741 35.6635C219.159 35.6635 220.476 34.9361 221.693 33.4837C222.911 32.0287 223.997 30.2384 224.951 28.105C225.906 25.9716 227.036 23.1416 228.345 19.6152C227.419 19.8525 226.12 20.3298 224.447 21.0443L223.384 21.5087L222.375 21.9369C221.704 22.2465 221.158 22.4787 220.739 22.6334C220.319 22.7882 219.974 22.8656 219.702 22.8656C219.519 22.8656 219.38 22.7521 219.28 22.5251C219.179 22.2981 219.13 22.0556 219.13 21.7925C219.13 21.4597 219.504 21.1191 220.247 20.7735C220.993 20.4278 222.11 20.0408 223.6 19.6126C224.182 19.4449 225.018 19.1612 226.109 18.7536C226.292 18.6813 226.84 18.4904 227.759 18.1809C228.677 17.8713 229.318 17.7165 229.681 17.7165H229.995C230.167 17.7165 230.291 17.8068 230.363 17.9848C230.435 18.1628 230.471 18.444 230.471 18.8258C230.471 19.0399 230.363 19.2308 230.144 19.3985L230.116 22.151C230.062 24.0084 230.034 26.0361 230.034 28.2262V35.2688C230.07 36.0789 230.134 36.6567 230.224 37.0024L230.229 37.0101Z" stroke="#F7941D" stroke-width="2" stroke-miterlimit="10"/>
<path d="M248.25 9.86381C247.759 10.2224 246.992 10.6016 245.947 11.0066C244.902 11.4116 244.043 11.698 243.371 11.8657C242.316 12.1288 241.258 12.3378 240.196 12.49C239.133 12.6447 238.446 12.735 238.137 12.7582C238.155 14.141 238.183 15.565 238.219 17.0302C238.255 18.4955 238.284 19.5016 238.302 20.0511C239.009 19.9324 240.075 19.7054 241.493 19.3726L242.53 19.1585C243.675 18.8954 244.555 18.4207 245.175 17.7293C245.502 17.3966 245.739 17.2289 245.883 17.2289C246.009 17.2289 246.114 17.3192 246.197 17.4972C246.279 17.6752 246.32 17.8609 246.32 18.0518C246.32 18.48 245.952 18.9521 245.216 19.4629C244.48 19.9763 243.667 20.3503 242.777 20.5877C242.03 20.8018 241.197 21.0056 240.268 21.1965C239.341 21.3874 238.731 21.506 238.441 21.555C238.549 25.631 238.868 28.657 239.395 30.633C239.923 30.8704 240.44 31.0432 240.95 31.1516C241.459 31.2599 242.113 31.3115 242.913 31.3115C243.713 31.3115 244.475 31.1748 245.203 30.9013C245.929 30.6279 246.516 30.2874 246.961 29.8823C247.406 29.4773 247.63 29.0955 247.63 28.7395C247.63 28.5486 247.602 28.3655 247.548 28.1849C247.494 28.0069 247.419 27.8212 247.329 27.6303C247.293 27.558 247.234 27.4471 247.151 27.2897C247.069 27.1349 247.028 27.0111 247.028 26.9157C247.028 26.6783 247.229 26.5571 247.627 26.5571C247.918 26.5571 248.168 26.717 248.376 27.0395C248.585 27.362 248.69 27.7128 248.69 28.0946C248.69 28.8582 248.43 29.6089 247.913 30.3467C247.396 31.0845 246.686 31.6881 245.787 32.1525C244.887 32.6168 243.893 32.849 242.802 32.849C241.711 32.849 240.785 32.7716 240.077 32.6168C239.37 32.462 238.832 32.1576 238.469 31.7062C238.034 31.0638 237.728 29.9442 237.555 28.3474C237.383 26.7506 237.234 24.6172 237.105 21.9497C236.76 22.0684 236.374 22.1716 235.947 22.2541C235.52 22.3367 235.198 22.378 234.979 22.378C234.761 22.378 234.583 22.2877 234.447 22.1097C234.31 21.9317 234.244 21.7098 234.244 21.4493C234.244 21.2816 234.267 21.1397 234.313 21.021C234.359 20.9024 234.426 20.8301 234.516 20.8069C235.116 20.7115 235.553 20.6521 235.826 20.6289L237 20.4509C236.927 17.3759 236.853 14.8762 236.781 12.944C236.508 12.944 236.289 12.9569 236.127 12.9801L234.874 13.0162C234.709 13.0162 234.583 12.9569 234.493 12.8382C234.403 12.7195 234.357 12.588 234.357 12.4461C234.357 11.8734 234.648 11.4942 235.229 11.3033C235.448 11.2569 235.723 11.2027 236.06 11.1433C236.397 11.084 236.619 11.0531 236.729 11.0531C237.074 10.5526 237.455 10.3024 237.874 10.3024C237.947 10.3024 238.006 10.3798 238.052 10.5345C238.098 10.6893 238.119 10.8028 238.119 10.8751C239.318 10.8028 240.746 10.6248 242.398 10.3385C243.489 10.1476 245.17 9.69613 247.442 8.97897L248.451 8.69263C248.634 8.69263 248.724 8.83451 248.724 9.12086C248.724 9.40721 248.569 9.65744 248.26 9.87155L248.25 9.86381Z" stroke="#F7941D" stroke-width="2" stroke-miterlimit="10"/>
<path d="M13.8949 25.0893C13.1306 26.4488 12.1039 27.7644 10.8147 29.0388C9.52285 30.3132 8.10752 30.9504 6.56095 30.9504C4.92432 30.9504 3.58876 30.3364 2.55429 29.1085C1.51724 27.8805 1 26.0644 1 23.6575C1 22.0143 1.21873 20.1543 1.65362 18.0828C2.08852 16.0087 2.59803 14.2107 3.17961 12.6861C3.77919 11.1382 4.47399 9.85095 5.264 8.82681C6.05401 7.80267 6.84917 7.28931 7.64947 7.28931C8.44977 7.28931 9.03392 7.6582 9.46366 8.39858C9.89083 9.13638 10.1044 10.0548 10.1044 11.1511C10.1044 11.5561 10.0452 11.9689 9.92686 12.3842C9.80849 12.8021 9.67725 13.153 9.53057 13.4393C9.38389 13.7257 9.27581 13.8676 9.20376 13.8676C9.05708 13.8676 8.98502 13.7592 8.98502 13.5451C8.98502 13.4729 9.0159 13.3129 9.08024 13.0627C9.14457 12.8125 9.17545 12.6035 9.17545 12.4384C9.17545 11.8425 9.12141 11.2827 9.01076 10.759C8.92069 10.3076 8.73798 9.93093 8.46521 9.63426C8.19244 9.33759 7.89393 9.18797 7.56455 9.18797C6.25473 9.18797 5.02983 10.8441 3.8847 14.1565C3.42922 15.4902 3.04837 16.9916 2.73957 18.6607C2.43077 20.3297 2.27637 21.9369 2.27637 23.4873C2.27637 24.5604 2.44363 25.5381 2.78074 26.4178C3.11785 27.3001 3.59906 28.0018 4.22437 28.5254C4.85227 29.0491 5.58309 29.3123 6.41942 29.3123C7.74468 29.3123 8.949 28.8969 10.0324 28.0611C11.1132 27.2279 12.1811 26.1547 13.2362 24.8442C13.2722 24.7978 13.4008 24.5295 13.617 24.0393C13.8357 23.5518 13.9979 23.3067 14.1085 23.3067C14.2192 23.3067 14.2912 23.3428 14.3272 23.4151C14.3633 23.4873 14.3813 23.6188 14.3813 23.8072C14.3813 24.0445 14.2166 24.4753 13.8898 25.0944L13.8949 25.0893Z" stroke="#E3E3E3" stroke-width="2" stroke-miterlimit="10"/>
<path d="M31.4785 21.2997C31.1517 21.4416 30.7554 21.5319 30.2922 21.568C29.829 21.6041 29.5253 21.6222 29.3786 21.6222C29.3606 22.36 29.3246 23.1829 29.2706 24.0884C29.2165 24.9938 29.1702 25.7445 29.1342 26.3405L29.0518 27.4497L28.9978 28.5925L28.8331 31.3451C28.7611 32.5601 28.46 33.1689 27.9324 33.1689C27.7317 33.1689 27.5361 32.8645 27.3457 32.2583C27.1553 31.6495 27.0601 31.1568 27.0601 30.775C27.0601 30.6795 27.1321 30.4886 27.2788 30.2023C27.4229 29.9159 27.5156 29.5599 27.5516 29.1291C27.6236 28.4636 27.706 27.3543 27.7961 25.8039C27.8861 24.2561 27.9505 22.9559 27.9865 21.9085C27.2788 21.9808 26.5145 22.0865 25.6962 22.231C25.3334 22.28 24.5151 22.3858 23.2438 22.5534C21.9726 22.7211 20.9716 22.8269 20.2459 22.8759C20.1739 24.4495 20.0915 26.3663 20.0015 28.6312C19.9114 30.8936 19.8651 32.2764 19.8651 32.7768C19.8651 32.9677 19.8882 33.218 19.932 33.5275C19.9783 33.8371 19.9989 34.0744 19.9989 34.2421C19.9989 34.4562 19.8754 34.6703 19.6309 34.8844C19.3864 35.0986 19.1909 35.2069 19.0442 35.2069C18.8615 35.2069 18.7122 35.0521 18.5938 34.7426C18.4755 34.433 18.4163 34.0744 18.4163 33.6694C18.4163 33.4553 18.4343 33.1019 18.4703 32.6143C18.5064 32.1267 18.5347 31.7037 18.5527 31.3451C18.6247 30.7027 18.671 30.1791 18.6891 29.7715C18.7791 28.3655 18.8538 27.0086 18.9078 25.6955C18.9618 24.385 18.9979 23.5028 19.0159 23.0513C17.8707 23.3145 16.7899 23.4434 15.7709 23.4434C15.4261 23.4434 15.1302 23.3299 14.8857 23.1029C14.6412 22.8759 14.5177 22.5483 14.5177 22.1201C14.5177 21.8105 14.5769 21.5783 14.6953 21.4235C14.8136 21.2688 15.053 21.1914 15.4184 21.1914L16.862 21.2275C17.8064 21.2765 18.5707 21.2997 19.1523 21.2997C19.2423 19.2746 19.2886 17.6546 19.2886 16.4395C19.2886 13.6767 19.2706 11.1976 19.2346 9.00483V7.68144C19.2346 7.32286 19.3401 7.03135 19.5485 6.80692C19.757 6.5799 19.9989 6.4664 20.2717 6.4664C20.4724 6.4664 20.6088 6.67019 20.6808 7.07521C20.7529 7.48022 20.7889 7.93425 20.7889 8.43471C20.7889 8.93518 20.7426 10.0316 20.6525 11.6516C20.5444 14.4171 20.4878 15.8823 20.4878 16.0474L20.3514 21.1578C21.8774 21.1114 24.4687 20.7992 28.1203 20.2291C28.1923 19.5378 28.321 17.7268 28.5011 14.7963C28.5732 13.2484 28.6375 12.116 28.6916 11.4014L28.8563 8.61271C29.093 5.10947 29.2114 2.91672 29.2114 2.03704C29.2114 1.72748 29.3014 1.47725 29.4842 1.28635C29.6669 1.09545 29.8753 1 30.112 1C30.4389 1 30.6035 1.41791 30.6035 2.25116C30.6035 2.77484 30.5135 4.17046 30.3308 6.43286C30.1301 9.38663 30.022 11.0325 30.004 11.3653C29.8959 13.1994 29.7904 14.9511 29.69 16.6201C29.5897 18.2892 29.5228 19.4088 29.4867 19.9789C29.8135 19.9067 30.1043 19.8009 30.3591 19.6564C30.6859 19.5146 30.9407 19.4423 31.1234 19.4423C31.3061 19.4423 31.5145 19.5842 31.7513 19.8706C31.988 20.1569 32.1064 20.3581 32.1064 20.4794C32.1064 20.8612 31.8979 21.1346 31.4785 21.3023V21.2997Z" stroke="#E3E3E3" stroke-width="2" stroke-miterlimit="10"/>
<path d="M51.2699 8.35992C50.9251 8.55082 50.4156 8.72882 49.7439 8.8965C48.9977 9.08739 48.0532 9.27055 46.9081 9.45113C45.763 9.62913 44.8366 9.74264 44.1263 9.79165C44.0723 10.8158 44.0003 13.7721 43.9076 18.6555C43.8176 23.5415 43.7609 27.1505 43.7429 29.4851C44.7234 29.4619 46.0152 29.3768 47.6132 29.2349C48.9591 29.1395 49.713 29.093 49.8752 29.093C50.202 29.093 50.4979 29.1885 50.7604 29.3794C51.0229 29.5703 51.1567 29.8669 51.1567 30.2719C51.1567 30.6047 51.1155 30.8446 51.0332 30.9865C50.9508 31.1284 50.7732 31.2006 50.5005 31.2006C50.3924 31.2006 50.0913 31.1645 49.5998 31.0923C49.237 30.9968 48.9282 30.9504 48.6734 30.9504C47.8191 30.9504 46.1104 31.0226 43.5474 31.1645C43.4573 31.3322 43.3518 31.456 43.2334 31.5386C43.115 31.6211 43.0095 31.6624 42.9195 31.6624C42.8114 31.6624 42.7007 31.6263 42.5926 31.5541C42.4846 31.4818 42.4202 31.3761 42.4022 31.2316L41.1747 31.4096C39.7568 31.6469 38.7018 31.7682 38.0121 31.7682C37.4125 31.7682 36.9571 31.6005 36.6483 31.2677C36.4836 31.0768 36.4038 30.7311 36.4038 30.2307C36.4038 30.0888 36.463 29.9082 36.5814 29.6941C36.6997 29.48 36.8233 29.3716 36.9493 29.3716C36.9854 29.3716 37.1269 29.4387 37.3714 29.5677C37.6158 29.6992 37.8474 29.7637 38.0662 29.7637C38.7378 29.7637 39.7285 29.7173 41.0384 29.6219L42.2916 29.5135L42.4563 24.2586C42.4743 23.7117 42.4923 23.2164 42.5103 22.7753C42.5283 22.3342 42.5386 21.9601 42.5386 21.6506L42.8114 9.96192C40.92 10.1296 40.0219 10.2121 40.112 10.2121C38.2592 10.403 37.1681 10.4985 36.8413 10.4985C36.5325 10.4985 36.2417 10.3669 35.9689 10.1064C35.6961 9.84325 35.5598 9.51047 35.5598 9.10545C35.5598 8.81911 35.6189 8.59209 35.7373 8.42699C35.8557 8.25931 36.0152 8.17676 36.2134 8.17676C36.3575 8.17676 36.5042 8.18966 36.6483 8.21287C36.7924 8.23609 36.9391 8.26189 37.0832 8.28511C37.5361 8.40377 37.9735 8.46311 38.393 8.46311C38.8124 8.46311 39.5561 8.42183 40.6832 8.33928C41.8104 8.25673 42.5643 8.20256 42.9452 8.17934C42.9632 7.86977 43.0456 7.61438 43.1897 7.41059C43.3338 7.20937 43.5268 7.10618 43.7609 7.10618C43.869 7.10618 43.9617 7.20163 44.0337 7.39253C44.1058 7.58343 44.1418 7.79754 44.1418 8.03487C45.1969 7.98844 47.096 7.6763 49.8391 7.10618C50.0579 7.05975 50.2972 6.92818 50.5622 6.71406C50.8247 6.49995 50.9765 6.3916 51.0126 6.3916C51.1953 6.3916 51.3677 6.48705 51.5298 6.67795C51.6945 6.86885 51.7743 7.10618 51.7743 7.39253C51.7743 7.84656 51.6019 8.16644 51.257 8.35734L51.2699 8.35992Z" stroke="#E3E3E3" stroke-width="2" stroke-miterlimit="10"/>
<path d="M69.646 25.0893C68.8818 26.4488 67.855 27.7644 66.5658 29.0388C65.274 30.3132 63.8586 30.9504 62.3121 30.9504C60.6754 30.9504 59.3399 30.3364 58.3054 29.1085C57.2683 27.8805 56.7511 26.0644 56.7511 23.6575C56.7511 22.0143 56.9698 20.1543 57.4047 18.0828C57.8396 16.0087 58.3491 14.2107 58.9307 12.6861C59.5303 11.1382 60.2251 9.85095 61.0151 8.82681C61.8051 7.80267 62.6003 7.28931 63.4006 7.28931C64.2009 7.28931 64.785 7.6582 65.2148 8.39858C65.6419 9.13638 65.8555 10.0548 65.8555 11.1511C65.8555 11.5561 65.7963 11.9689 65.678 12.3842C65.5596 12.8021 65.4283 13.153 65.2817 13.4393C65.135 13.7257 65.0269 13.8676 64.9549 13.8676C64.8082 13.8676 64.7361 13.7592 64.7361 13.5451C64.7361 13.4729 64.767 13.3129 64.8313 13.0627C64.8957 12.8125 64.9265 12.6035 64.9265 12.4384C64.9265 11.8425 64.8725 11.2827 64.7619 10.759C64.6718 10.3076 64.4891 9.93093 64.2163 9.63426C63.9435 9.33759 63.645 9.18797 63.3157 9.18797C62.0058 9.18797 60.7809 10.8441 59.6358 14.1565C59.1803 15.4902 58.7995 16.9916 58.4907 18.6607C58.1819 20.3297 58.0275 21.9369 58.0275 23.4873C58.0275 24.5604 58.1947 25.5381 58.5318 26.4178C58.8689 27.3001 59.3502 28.0018 59.9755 28.5254C60.6034 29.0491 61.3342 29.3123 62.1705 29.3123C63.4958 29.3123 64.7001 28.8969 65.7835 28.0611C66.8643 27.2279 67.9322 26.1547 68.9873 24.8442C69.0233 24.7978 69.1519 24.5295 69.3681 24.0393C69.5868 23.5518 69.749 23.3067 69.8596 23.3067C69.9703 23.3067 70.0423 23.3428 70.0783 23.4151C70.1144 23.4873 70.1324 23.6188 70.1324 23.8072C70.1324 24.0445 69.9677 24.4753 69.6409 25.0944L69.646 25.0893Z" stroke="#E3E3E3" stroke-width="2" stroke-miterlimit="10"/>
<path d="M86.792 27.9115C86.684 28.1489 86.5656 28.2701 86.4369 28.2701C85.5466 28.2701 83.6474 27.473 80.7396 25.8762L80.0036 25.4479C78.9666 24.8752 78.1637 24.447 77.5898 24.1606C77.016 23.8743 76.4679 23.637 75.9403 23.4461C75.9403 26.3998 75.8863 28.4739 75.7756 29.6657C75.5749 30.6177 75.3124 31.0949 74.9856 31.0949C74.8209 31.0949 74.6717 31.0356 74.5353 30.9169C74.3989 30.7982 74.332 30.6435 74.332 30.4526C74.332 30.0243 74.3603 29.4413 74.4144 28.7009C74.5224 27.1763 74.579 25.8658 74.579 24.7695V23.2681C74.3963 23.1004 74.2651 22.9533 74.1828 22.8218C74.1004 22.6902 74.0592 22.5432 74.0592 22.3755C74.0592 22.1614 74.1081 21.9653 74.2085 21.7847C74.3088 21.6067 74.4221 21.4391 74.5482 21.2843C74.6743 21.1295 74.7669 21.0057 74.8209 20.9102C74.8389 20.4098 74.8492 19.5404 74.8492 18.3021C74.8492 15.2039 74.5121 11.9277 73.8405 8.47346L73.7324 7.75888C73.7324 7.4261 73.8379 7.16297 74.0464 6.97207C74.2548 6.78117 74.4967 6.68572 74.7695 6.68572C74.9702 6.68572 75.1735 7.19908 75.3819 8.22322C75.5904 9.24737 75.7576 10.5527 75.8863 12.1366C76.0124 13.7206 76.0767 15.3123 76.0767 16.9091V19.3031C76.3315 18.9445 76.9028 18.1241 77.7931 16.8369C78.6835 15.5496 79.5558 14.2623 80.4102 12.9776C81.8461 10.7617 82.9552 8.78302 83.7349 7.0443C83.9357 6.56705 84.1801 5.94792 84.4709 5.18691C84.7437 4.44911 84.9161 4.07764 84.9881 4.07764C85.1889 4.07764 85.2892 4.36398 85.2892 4.93668C85.2892 5.62804 85.2069 6.28844 85.0448 6.92047C84.8801 7.5525 84.6459 8.22581 84.3371 8.94038C83.8276 10.109 83.2408 11.257 82.5795 12.3895C81.9156 13.5219 81.0741 14.8015 80.0576 16.2306C79.6768 16.7543 79.3397 17.2083 79.0489 17.5901C78.7581 17.9719 78.5034 18.3176 78.2846 18.6272C77.3402 19.8654 76.5862 20.9025 76.0227 21.7357C76.2594 21.8544 76.8075 22.1175 77.6722 22.5225C78.5342 22.9276 79.6588 23.4409 81.0381 24.06C82.0185 24.5141 82.8368 24.8778 83.4905 25.1513C84.1441 25.4247 84.7076 25.6698 85.1811 25.8839C85.2892 25.9329 85.4179 25.9845 85.562 26.0438C85.7061 26.1032 85.8631 26.1677 86.0252 26.2399C86.6428 26.503 86.9516 26.7894 86.9516 27.0989C86.9516 27.4085 86.8975 27.6819 86.7869 27.9219L86.792 27.9115Z" stroke="#E3E3E3" stroke-width="2" stroke-miterlimit="10"/>
<path d="M116.002 30.3777C115.873 30.3777 115.024 29.0982 113.452 26.5366C111.879 23.9749 110.585 21.7899 109.566 19.9764C109.419 19.7132 108.956 18.8439 108.176 17.3683C107.031 15.1755 106.324 13.8547 106.051 13.4007L105.997 16.1532L105.969 18.8336C105.969 20.5258 105.956 22.36 105.927 24.3386C105.899 26.3173 105.868 27.8883 105.832 29.0569C105.814 29.3433 105.719 29.6064 105.546 29.8437C105.374 30.0811 105.197 30.2023 105.014 30.2023C104.813 30.2023 104.674 30.1249 104.592 29.9701C104.509 29.8154 104.468 29.511 104.468 29.0595C104.468 28.7732 104.504 27.8935 104.576 26.4153C104.741 23.6757 104.821 21.3746 104.821 19.5172C104.821 18.039 104.839 16.6408 104.875 15.3174C104.911 13.994 104.929 13.1788 104.929 12.8693L104.957 11.8322V11.7239C104.957 11.4608 104.988 11.2544 105.052 11.0996C105.117 10.9448 105.248 10.8674 105.449 10.8674H105.585C105.786 10.8674 106.18 11.3395 106.771 12.2785C107.361 13.2201 108.112 14.4996 109.02 16.1197C109.221 16.4525 109.412 16.7801 109.592 17.1026C109.774 17.425 109.947 17.7269 110.109 18.0132C111.146 19.7519 111.689 20.6703 111.746 20.7658C114.327 25.079 115.734 27.5323 115.971 28.1282C115.935 27.9373 115.871 27.4962 115.781 26.8048C115.691 26.1135 115.603 25.208 115.521 24.0884C115.438 22.9688 115.397 21.8131 115.397 20.6213C115.397 18.5008 115.243 15.7018 114.934 12.2218C114.844 11.079 114.798 10.3747 114.798 10.1141C114.798 9.20867 115.189 8.75464 115.971 8.75464C116.154 8.75464 116.288 8.99971 116.38 9.48728C116.47 9.97484 116.535 11.0067 116.571 12.5803C116.607 14.154 116.625 16.6666 116.625 20.1234C116.625 21.2198 116.656 22.2929 116.72 23.3403C116.784 24.3902 116.843 25.3189 116.897 26.129C116.987 27.2486 117.034 28.0947 117.034 28.6674L117.062 29.9547C117.062 30.241 116.707 30.3829 115.999 30.3829L116.002 30.3777Z" stroke="#E3E3E3" stroke-width="2" stroke-miterlimit="10"/>
<path d="M150.804 9.21899C150.585 9.50533 150.34 9.68333 150.068 9.75557C149.087 10.0419 147.968 10.1967 146.715 10.2199L146.823 11.3292C147.095 13.9502 147.327 16.4396 147.517 18.8C147.708 21.1579 147.803 23.4229 147.803 25.5924C147.803 28.1669 147.43 29.983 146.686 31.0433C145.94 32.1036 144.741 32.635 143.089 32.635C142.034 32.635 140.816 32.3125 139.435 31.6702C138.053 31.0278 136.866 30.2281 135.878 29.2762C134.888 28.3243 134.393 27.442 134.393 26.632C134.393 26.2734 134.53 25.9303 134.803 25.595C135.075 25.2622 135.384 24.9758 135.729 24.7359C136.074 24.4986 136.318 24.3773 136.465 24.3773C136.702 24.3773 136.856 24.4599 136.928 24.6276C137.018 24.8185 137.065 24.9604 137.065 25.0558C137.065 25.1745 137 25.2828 136.874 25.3783C136.583 25.5692 136.383 25.7239 136.275 25.8426C136.166 25.9613 136.11 26.1419 136.11 26.3792C136.11 26.9519 136.478 27.5942 137.214 28.3088C137.95 29.0234 138.853 29.6374 139.926 30.1507C140.999 30.6641 141.998 30.9195 142.924 30.9195C143.724 30.9195 144.368 30.8008 144.859 30.5609C145.351 30.3236 145.731 29.8154 146.004 29.0415C146.277 28.2675 146.413 27.1067 146.413 25.5563C146.413 22.9585 146.105 18.7046 145.487 12.797C145.433 12.2501 145.382 11.7548 145.338 11.3137C145.291 10.8726 145.261 10.4985 145.243 10.189C144.007 10.189 143.017 10.1761 142.27 10.1528C140.888 10.1064 139.725 9.99806 138.781 9.83038C138.508 9.78394 138.287 9.64722 138.112 9.4202C137.939 9.19319 137.852 8.91458 137.852 8.57922C137.852 8.43734 137.906 8.29287 138.017 8.15099C138.125 8.0091 138.253 7.93687 138.398 7.93687C138.76 7.93687 139.18 7.97299 139.651 8.04522C140.961 8.2129 142.376 8.29545 143.904 8.29545H144.996C144.923 7.67632 144.895 7.23519 144.913 6.97206C144.931 6.75795 145.037 6.55415 145.227 6.36325C145.418 6.17235 145.613 6.0769 145.814 6.0769C146.033 6.0769 146.205 6.29102 146.331 6.71925C146.385 6.91015 146.475 7.43383 146.604 8.29287C147.458 8.29287 148.135 8.2516 148.634 8.16647C149.133 8.08392 149.419 8.02974 149.494 8.00652C150.003 7.91108 150.338 7.86464 150.502 7.86464C150.685 7.86464 150.834 7.90076 150.953 7.97299C151.071 8.04522 151.13 8.15099 151.13 8.29545C151.13 8.62823 151.022 8.9378 150.804 9.22415V9.21899Z" stroke="#E3E3E3" stroke-width="2" stroke-miterlimit="10"/>
<path d="M168.359 21.2997C168.032 21.4416 167.636 21.5319 167.172 21.568C166.709 21.6041 166.406 21.6222 166.259 21.6222C166.241 22.36 166.205 23.1829 166.151 24.0884C166.097 24.9938 166.05 25.7445 166.014 26.3405L165.932 27.4497L165.878 28.5925L165.713 31.3451C165.641 32.5601 165.34 33.1689 164.813 33.1689C164.612 33.1689 164.416 32.8645 164.226 32.2583C164.036 31.6495 163.94 31.1568 163.94 30.775C163.94 30.6795 164.012 30.4886 164.159 30.2023C164.303 29.9159 164.396 29.5599 164.432 29.1291C164.504 28.4636 164.586 27.3543 164.676 25.8039C164.766 24.2561 164.831 22.9559 164.867 21.9085C164.159 21.9808 163.395 22.0865 162.576 22.231C162.214 22.28 161.395 22.3858 160.124 22.5534C158.853 22.7211 157.852 22.8269 157.126 22.8759C157.054 24.4495 156.972 26.3663 156.882 28.6312C156.792 30.8936 156.745 32.2764 156.745 32.7768C156.745 32.9677 156.768 33.218 156.812 33.5275C156.859 33.8371 156.882 34.0744 156.882 34.2421C156.882 34.4562 156.758 34.6703 156.514 34.8844C156.269 35.0986 156.074 35.2069 155.927 35.2069C155.744 35.2069 155.595 35.0521 155.477 34.7426C155.358 34.433 155.299 34.0744 155.299 33.6694C155.299 33.4553 155.317 33.1019 155.353 32.6143C155.389 32.1267 155.417 31.7037 155.435 31.3451C155.508 30.7027 155.554 30.1791 155.572 29.7715C155.662 28.3655 155.737 27.0086 155.791 25.6955C155.845 24.385 155.881 23.5028 155.899 23.0513C154.754 23.3145 153.673 23.4434 152.654 23.4434C152.309 23.4434 152.013 23.3299 151.768 23.1029C151.524 22.8759 151.401 22.5483 151.401 22.1201C151.401 21.8105 151.46 21.5783 151.578 21.4235C151.696 21.2688 151.936 21.1914 152.301 21.1914L153.745 21.2275C154.689 21.2765 155.453 21.2997 156.035 21.2997C156.125 19.2746 156.171 17.6546 156.171 16.4395C156.171 13.6767 156.153 11.1976 156.117 9.00483V7.68144C156.117 7.32286 156.223 7.03135 156.431 6.80692C156.64 6.5799 156.882 6.4664 157.154 6.4664C157.355 6.4664 157.492 6.67019 157.564 7.07521C157.636 7.48022 157.672 7.93425 157.672 8.43471C157.672 8.93518 157.625 10.0316 157.535 11.6516C157.427 14.4171 157.371 15.8823 157.371 16.0474L157.234 21.1578C158.76 21.1114 161.352 20.7992 165.003 20.2291C165.075 19.5378 165.204 17.7268 165.384 14.7963C165.456 13.2484 165.52 12.116 165.574 11.4014L165.739 8.61271C165.976 5.10947 166.094 2.91672 166.094 2.03704C166.094 1.72748 166.184 1.47725 166.367 1.28635C166.55 1.09545 166.758 1 166.995 1C167.322 1 167.486 1.41791 167.486 2.25116C167.486 2.77484 167.396 4.17046 167.214 6.43286C167.013 9.38663 166.905 11.0325 166.887 11.3653C166.779 13.1994 166.673 14.9511 166.573 16.6201C166.472 18.2892 166.406 19.4088 166.37 19.9789C166.696 19.9067 166.987 19.8009 167.242 19.6564C167.569 19.5146 167.823 19.4423 168.006 19.4423C168.189 19.4423 168.397 19.5842 168.634 19.8706C168.871 20.1569 168.989 20.3581 168.989 20.4794C168.989 20.8612 168.781 21.1346 168.361 21.3023L168.359 21.2997Z" stroke="#E3E3E3" stroke-width="2" stroke-miterlimit="10"/>
<path d="M188.343 22.587C187.288 24.8262 185.935 26.6371 184.28 28.0198C182.625 29.4026 180.955 30.0939 179.264 30.0939C178.284 30.0939 177.355 29.8256 176.483 29.2891C175.61 28.7525 174.903 27.9605 174.357 26.9132C173.812 25.8658 173.539 24.6017 173.539 23.1236C173.539 20.598 174.038 17.9822 175.039 15.2787C176.038 12.5751 177.43 10.0316 179.21 7.64791C179.393 7.43379 179.566 7.28933 179.728 7.21968C179.892 7.14744 180.083 7.11133 180.299 7.11133C180.482 7.11133 180.657 7.17066 180.832 7.28933C181.004 7.40799 181.092 7.55246 181.092 7.71756C181.092 7.81301 181.061 7.94973 180.996 8.12773C180.932 8.30573 180.891 8.41924 180.873 8.46825C180.981 8.46825 181.115 8.4502 181.269 8.41408C181.423 8.37796 181.727 8.35991 182.183 8.35991C182.71 8.35991 183.423 8.47341 184.324 8.70043C185.224 8.92744 185.883 9.15962 186.3 9.39695C187.481 10.0883 188.382 10.9757 188.999 12.0592C189.617 13.1427 189.926 14.3061 189.926 15.5444C189.926 17.9977 189.398 20.3452 188.346 22.587H188.343ZM188.016 12.9182C187.525 12.0489 186.799 11.3266 185.834 10.7565C185.307 10.4469 184.643 10.2921 183.845 10.2921C183.59 10.2921 183.245 10.3153 182.808 10.3643L181.799 10.4005C180.927 10.4005 180.489 10.1631 180.489 9.68587C180.489 9.51819 180.497 9.36341 180.518 9.22153C180.536 9.07964 180.554 8.98419 180.572 8.93518C180.191 8.93518 179.879 9.07706 179.645 9.36341C178.155 11.3885 177.005 13.5451 176.197 15.8333C175.389 18.1215 174.985 20.3504 174.985 22.5173C174.985 24.5424 175.371 26.0154 176.143 26.9312C176.915 27.8496 177.973 28.3062 179.319 28.3062C180.844 28.3062 182.34 27.7335 183.804 26.5907C185.265 25.4479 186.457 23.9465 187.376 22.0865C188.294 20.2291 188.752 18.2969 188.752 16.2951C188.752 14.9124 188.508 13.7876 188.016 12.9182Z" stroke="#E3E3E3" stroke-width="2" stroke-miterlimit="10"/>
<path d="M209.797 28.5925C209.614 28.9975 209.424 29.2013 209.226 29.2013C209.043 29.2013 208.871 29.16 208.708 29.0775C208.544 28.9949 208.299 28.8324 207.973 28.5951C206.827 27.7128 205.327 26.8564 203.474 26.0205C202.656 25.662 201.688 25.2879 200.572 24.8958C199.455 24.5037 198.577 24.2122 197.942 24.0213L198.132 28.6312C198.15 29.2736 198.214 29.8179 198.323 30.2564C198.431 30.6975 198.487 30.9762 198.487 31.0974C198.487 31.3605 198.387 31.5798 198.186 31.7578C197.985 31.9358 197.777 32.0261 197.558 32.0261C197.286 32.0261 197.113 31.7759 197.041 31.2754C197.041 31.2264 197.018 31.0123 196.974 30.6331C196.928 30.2513 196.905 29.7173 196.905 29.0233C196.905 28.5719 196.869 27.6071 196.797 26.1289C196.779 25.6284 196.761 25.146 196.743 24.6817C196.725 24.2173 196.714 23.8072 196.714 23.4486C196.66 23.3763 196.591 23.2938 196.511 23.1983C196.429 23.1029 196.362 22.9713 196.308 22.8062C196.254 22.5921 196.207 22.3651 196.171 22.1278C196.135 21.8904 196.117 21.7099 196.117 21.5912C196.117 21.4235 196.153 21.2945 196.225 21.1991C196.297 21.1036 196.408 20.9979 196.552 20.8766C196.444 14.9201 196.387 11.5123 196.387 10.6532C196.387 9.88964 196.395 9.18796 196.416 8.54561C196.434 7.90326 196.444 7.47245 196.444 7.25834C196.336 7.28155 196.009 7.34089 195.464 7.43633C194.918 7.53178 194.483 7.62723 194.154 7.72268C192.991 8.08126 192.105 8.4192 191.496 8.74167C190.886 9.06413 190.301 9.42787 189.738 9.83288C189.573 9.97477 189.416 10.0883 189.262 10.1734C189.107 10.256 188.958 10.2998 188.812 10.2998C188.665 10.2998 188.539 10.2095 188.431 10.0315C188.323 9.85352 188.266 9.63166 188.266 9.37111C188.266 8.91967 188.848 8.39341 190.011 7.79749C191.174 7.20158 192.437 6.71402 193.801 6.33222C194.565 6.11811 195.536 5.93237 196.719 5.77758C197.901 5.6228 198.999 5.54541 200.018 5.54541C201.763 5.54541 203.248 5.79564 204.475 6.29611C205.703 6.79657 206.629 7.50083 207.257 8.40372C207.885 9.3092 208.199 10.3462 208.199 11.5123C208.199 13.0137 207.872 14.3009 207.219 15.3715C206.565 16.4447 205.695 17.3734 204.614 18.1602C203.534 18.947 202.064 19.8396 200.211 20.8405C199.738 21.1268 199.272 21.39 198.806 21.6273C198.343 21.8646 198.029 22.0323 197.865 22.1278C197.865 22.2696 197.872 22.378 197.893 22.4502C199.856 23.0229 201.791 23.6782 203.701 24.416L204.272 24.6301C206.254 25.4169 207.715 26.0309 208.662 26.472C209.607 26.9131 210.08 27.2769 210.08 27.5632C210.08 27.8496 209.99 28.1952 209.807 28.6002L209.797 28.5925ZM206.035 9.32726C205.507 8.6617 204.712 8.11738 203.649 7.70204C202.587 7.28413 201.3 7.07776 199.792 7.07776C198.665 7.07776 197.957 7.10097 197.666 7.14999C197.648 7.31767 197.625 7.70978 197.597 8.32891C197.569 8.94804 197.556 9.56717 197.556 10.1863L197.664 15.9055L197.772 20.3374C197.937 20.3142 198.258 20.2007 198.739 19.9969C199.221 19.7957 199.625 19.5971 199.951 19.4062C202.26 18.1911 203.981 16.9709 205.119 15.743C206.254 14.515 206.822 13.104 206.822 11.5071C206.822 10.7203 206.56 9.9954 206.032 9.32726H206.035Z" stroke="#E3E3E3" stroke-width="2" stroke-miterlimit="10"/>
<path d="M229.344 35.2921C229.434 35.6378 229.534 35.888 229.645 36.0428C229.753 36.1976 229.81 36.3343 229.81 36.453C229.81 36.6207 229.743 36.7497 229.606 36.8451C229.47 36.9406 229.321 36.987 229.156 36.987C228.757 36.987 228.425 36.8374 228.16 36.5407C227.898 36.2415 227.764 35.8081 227.764 35.2354C227.764 32.2326 227.782 29.7793 227.818 27.8729L227.872 24.6921C227.926 22.4761 227.954 20.82 227.954 19.7236C226.138 25.0378 224.357 29.0467 222.612 31.7502C220.867 34.4537 218.914 35.8081 216.75 35.8081C215.149 35.8081 213.979 35.1657 213.232 33.8784C212.486 32.5912 212.115 30.5893 212.115 27.8729C212.115 24.2278 212.743 20.66 213.997 17.1671C215.25 13.6768 216.863 10.8339 218.834 8.64118C220.806 6.44843 222.8 5.35205 224.817 5.35205C225.453 5.35205 225.885 5.61518 226.112 6.13886C226.338 6.66254 226.451 7.21202 226.451 7.78213C226.451 8.35225 226.41 8.85013 226.328 9.19323C226.246 9.53891 226.15 9.71175 226.042 9.71175C225.952 9.71175 225.883 9.60341 225.839 9.38929C225.793 9.17518 225.744 8.79338 225.69 8.24648C225.636 7.7228 225.543 7.33585 225.417 7.08561C225.291 6.83538 225.062 6.71156 224.735 6.71156C223.062 6.71156 221.341 7.78471 219.568 9.92845C217.795 12.0722 216.323 14.7835 215.152 18.0597C213.979 21.3359 213.394 24.5347 213.394 27.6562C213.394 29.6348 213.644 31.1775 214.143 32.2842C214.642 33.3935 215.548 33.9455 216.856 33.9455C218.273 33.9455 219.591 33.218 220.808 31.7657C222.025 30.3107 223.111 28.5204 224.066 26.387C225.021 24.2536 226.15 21.4236 227.46 17.8972C226.534 18.1345 225.234 18.6117 223.562 19.3263L222.499 19.7907L221.49 20.2189C220.818 20.5285 220.273 20.7606 219.853 20.9154C219.434 21.0702 219.089 21.1476 218.816 21.1476C218.634 21.1476 218.495 21.0341 218.394 20.8071C218.294 20.5801 218.245 20.3376 218.245 20.0744C218.245 19.7417 218.618 19.4011 219.362 19.0555C220.108 18.7098 221.225 18.3228 222.715 17.8946C223.297 17.7269 224.133 17.4431 225.224 17.0355C225.407 16.9633 225.955 16.7724 226.873 16.4628C227.792 16.1533 228.433 15.9985 228.796 15.9985H229.11C229.282 15.9985 229.406 16.0888 229.478 16.2668C229.55 16.4448 229.586 16.726 229.586 17.1078C229.586 17.3219 229.478 17.5128 229.259 17.6805L229.231 20.433C229.177 22.2904 229.148 24.3181 229.148 26.5082V33.5508C229.184 34.3608 229.249 34.9387 229.339 35.2844L229.344 35.2921Z" stroke="#E3E3E3" stroke-width="2" stroke-miterlimit="10"/>
<path d="M247.365 8.1458C246.873 8.50438 246.107 8.88359 245.062 9.28861C244.017 9.69362 243.158 9.97997 242.486 10.1476C241.431 10.4108 240.373 10.6197 239.31 10.7719C238.248 10.9267 237.561 11.017 237.252 11.0402C237.27 12.4229 237.298 13.8469 237.334 15.3122C237.37 16.7775 237.399 17.7836 237.417 18.3331C238.124 18.2144 239.19 17.9874 240.607 17.6546L241.645 17.4405C242.79 17.1773 243.67 16.7027 244.29 16.0113C244.617 15.6785 244.853 15.5109 244.998 15.5109C245.124 15.5109 245.229 15.6011 245.311 15.7791C245.394 15.9571 245.435 16.1429 245.435 16.3338C245.435 16.762 245.067 17.2341 244.331 17.7449C243.595 18.2582 242.782 18.6323 241.892 18.8696C241.145 19.0838 240.312 19.2875 239.383 19.4784C238.456 19.6693 237.846 19.788 237.555 19.837C237.664 23.913 237.983 26.939 238.51 28.915C239.038 29.1523 239.555 29.3252 240.064 29.4335C240.574 29.5419 241.228 29.5935 242.028 29.5935C242.828 29.5935 243.59 29.4568 244.318 29.1833C245.044 28.9099 245.631 28.5693 246.076 28.1643C246.521 27.7593 246.745 27.3775 246.745 27.0215C246.745 26.8306 246.717 26.6475 246.662 26.4669C246.608 26.2889 246.534 26.1031 246.444 25.9122C246.408 25.84 246.349 25.7291 246.266 25.5717C246.184 25.4169 246.143 25.2931 246.143 25.1977C246.143 24.9603 246.343 24.8391 246.742 24.8391C247.033 24.8391 247.283 24.999 247.491 25.3215C247.7 25.6439 247.805 25.9948 247.805 26.3766C247.805 27.1402 247.545 27.8909 247.028 28.6287C246.511 29.3665 245.8 29.9701 244.902 30.4345C244.002 30.8988 243.008 31.131 241.917 31.131C240.826 31.131 239.9 31.0536 239.192 30.8988C238.484 30.744 237.947 30.4396 237.584 29.9882C237.149 29.3458 236.843 28.2262 236.67 26.6294C236.498 25.0326 236.349 22.8991 236.22 20.2317C235.875 20.3504 235.489 20.4536 235.062 20.5361C234.635 20.6187 234.313 20.66 234.094 20.66C233.876 20.66 233.698 20.5697 233.562 20.3917C233.425 20.2137 233.358 19.9918 233.358 19.7313C233.358 19.5636 233.382 19.4217 233.428 19.303C233.474 19.1844 233.541 19.1121 233.631 19.0889C234.231 18.9935 234.668 18.9341 234.941 18.9109L236.114 18.7329C236.042 15.6579 235.968 13.1582 235.896 11.226C235.623 11.226 235.404 11.2389 235.242 11.2621L233.989 11.2982C233.824 11.2982 233.698 11.2389 233.608 11.1202C233.518 11.0015 233.472 10.87 233.472 10.7281C233.472 10.1554 233.762 9.77617 234.344 9.58527C234.563 9.53884 234.838 9.48466 235.175 9.42533C235.512 9.366 235.734 9.33504 235.844 9.33504C236.189 8.83458 236.57 8.58435 236.989 8.58435C237.061 8.58435 237.121 8.66174 237.167 8.81652C237.213 8.9713 237.234 9.08481 237.234 9.15704C238.433 9.08481 239.861 8.90681 241.513 8.62046C242.604 8.42956 244.285 7.97812 246.557 7.26096L247.566 6.97461C247.748 6.97461 247.838 7.11649 247.838 7.40284C247.838 7.68919 247.684 7.93942 247.375 8.15354L247.365 8.1458Z" stroke="#E3E3E3" stroke-width="2" stroke-miterlimit="10"/>
</svg>
