<svg width="185" height="30" viewBox="0 0 185 30" fill="none" xmlns="http://www.w3.org/2000/svg">
<path d="M11.1798 20.0626C10.6152 21.0669 9.85667 22.0389 8.90428 22.9803C7.94999 23.9217 6.90444 24.3924 5.76195 24.3924C4.55293 24.3924 3.56632 23.9388 2.80212 23.0317C2.03603 22.1246 1.65393 20.783 1.65393 19.005C1.65393 17.7911 1.81551 16.417 2.13678 14.8868C2.45805 13.3546 2.83444 12.0263 3.26406 10.9C3.70699 9.75663 4.22026 8.80569 4.80386 8.04913C5.38746 7.29256 5.97486 6.91333 6.56607 6.91333C7.15728 6.91333 7.5888 7.18584 7.90626 7.73278C8.22183 8.27781 8.37961 8.95624 8.37961 9.76616C8.37961 10.0654 8.33589 10.3703 8.24844 10.6771C8.16099 10.9858 8.06404 11.245 7.95569 11.4565C7.84733 11.668 7.76749 11.7729 7.71426 11.7729C7.60591 11.7729 7.55268 11.6928 7.55268 11.5346C7.55268 11.4813 7.57549 11.3631 7.62302 11.1783C7.67054 10.9934 7.69335 10.8391 7.69335 10.7171C7.69335 10.2769 7.65343 9.86335 7.57169 9.47649C7.50516 9.143 7.37019 8.86476 7.16868 8.64561C6.96718 8.42645 6.74666 8.31592 6.50334 8.31592C5.53574 8.31592 4.63087 9.53938 3.78493 11.9863C3.44846 12.9715 3.16711 14.0807 2.93899 15.3136C2.71088 16.5466 2.59682 17.7339 2.59682 18.8792C2.59682 19.672 2.72038 20.3942 2.96941 21.0441C3.21844 21.6958 3.57392 22.2142 4.03586 22.601C4.4997 22.9879 5.03958 23.1823 5.6574 23.1823C6.63641 23.1823 7.52607 22.8755 8.32638 22.258C9.12479 21.6425 9.9137 20.8497 10.6931 19.8816C10.7197 19.8473 10.8148 19.6491 10.9744 19.287C11.136 18.9268 11.2558 18.7458 11.3375 18.7458C11.4193 18.7458 11.4725 18.7725 11.4991 18.8258C11.5257 18.8792 11.539 18.9764 11.539 19.1155C11.539 19.2908 11.4174 19.6091 11.176 20.0665L11.1798 20.0626Z" stroke="#996632" stroke-width="2" stroke-miterlimit="10"/>
<path d="M24.1691 17.265C23.9277 17.3698 23.635 17.4365 23.2928 17.4632C22.9506 17.4898 22.7263 17.5032 22.6179 17.5032C22.6046 18.0482 22.578 18.6561 22.5381 19.325C22.4982 19.9939 22.464 20.5485 22.4374 20.9887L22.3765 21.8082L22.3366 22.6524L22.2149 24.6858C22.1617 25.5833 21.9393 26.0331 21.5496 26.0331C21.4013 26.0331 21.2568 25.8082 21.1162 25.3604C20.9755 24.9106 20.9052 24.5466 20.9052 24.2646C20.9052 24.1941 20.9584 24.0531 21.0667 23.8415C21.1732 23.63 21.2416 23.367 21.2682 23.0488C21.3215 22.5571 21.3823 21.7376 21.4488 20.5923C21.5154 19.4489 21.5629 18.4884 21.5895 17.7147C21.0667 17.7681 20.5022 17.8462 19.8976 17.9529C19.6296 17.9891 19.0251 18.0673 18.086 18.1911C17.1469 18.315 16.4074 18.3931 15.8714 18.4294C15.8181 19.5918 15.7573 21.0078 15.6908 22.681C15.6242 24.3523 15.59 25.3737 15.59 25.7434C15.59 25.8844 15.6071 26.0693 15.6394 26.298C15.6737 26.5267 15.6889 26.702 15.6889 26.8259C15.6889 26.984 15.5976 27.1422 15.417 27.3004C15.2364 27.4586 15.092 27.5386 14.9836 27.5386C14.8486 27.5386 14.7384 27.4242 14.6509 27.1956C14.5635 26.9669 14.5198 26.702 14.5198 26.4028C14.5198 26.2446 14.5331 25.9835 14.5597 25.6234C14.5863 25.2632 14.6072 24.9507 14.6205 24.6858C14.6737 24.2112 14.708 23.8244 14.7213 23.5233C14.7878 22.4847 14.8429 21.4823 14.8828 20.5123C14.9228 19.5442 14.9494 18.8924 14.9627 18.5589C14.1168 18.7533 13.3183 18.8486 12.5655 18.8486C12.3108 18.8486 12.0922 18.7648 11.9116 18.5971C11.731 18.4294 11.6398 18.1873 11.6398 17.871C11.6398 17.6423 11.6835 17.4708 11.7709 17.3564C11.8584 17.2421 12.0352 17.1849 12.3051 17.1849L13.3716 17.2116C14.0692 17.2478 14.6338 17.265 15.0634 17.265C15.13 15.769 15.1642 14.5722 15.1642 13.6746C15.1642 11.6336 15.1509 9.80226 15.1243 8.18242V7.2048C15.1243 6.93991 15.2022 6.72456 15.3562 6.55877C15.5102 6.39107 15.6889 6.30722 15.8904 6.30722C16.0386 6.30722 16.1394 6.45777 16.1926 6.75696C16.2459 7.05615 16.2725 7.39156 16.2725 7.76126C16.2725 8.13097 16.2382 8.94089 16.1717 10.1377C16.0919 12.1806 16.0501 13.263 16.0501 13.385L15.9493 17.1602C17.0766 17.1259 18.9909 16.8953 21.6884 16.4741C21.7416 15.9634 21.8366 14.6256 21.9697 12.4607C22.0229 11.3173 22.0705 10.4807 22.1104 9.95281L22.232 7.89276C22.4069 5.30482 22.4944 3.68498 22.4944 3.03513C22.4944 2.80645 22.5609 2.6216 22.6959 2.48058C22.8309 2.33955 22.9848 2.26904 23.1597 2.26904C23.4012 2.26904 23.5228 2.57777 23.5228 3.19331C23.5228 3.58016 23.4563 4.61114 23.3213 6.28244C23.173 8.46446 23.0932 9.6803 23.0799 9.92613C23 11.2811 22.9221 12.5751 22.848 13.808C22.7738 15.041 22.7244 15.8681 22.6978 16.2893C22.9392 16.2359 23.154 16.1578 23.3422 16.051C23.5836 15.9462 23.7718 15.8929 23.9068 15.8929C24.0418 15.8929 24.1958 15.9977 24.3707 16.2092C24.5455 16.4208 24.633 16.5694 24.633 16.659C24.633 16.941 24.479 17.143 24.1691 17.2669V17.265Z" stroke="#996632" stroke-width="2" stroke-miterlimit="10"/>
<path d="M38.7915 7.706C38.5368 7.84702 38.1604 7.97851 37.6643 8.10238C37.113 8.24341 36.4153 8.37871 35.5694 8.51211C34.7234 8.6436 34.0391 8.72745 33.5144 8.76366C33.4745 9.52022 33.4213 11.7042 33.3528 15.3116C33.2863 18.921 33.2445 21.5871 33.2312 23.3118C33.9554 23.2946 34.9097 23.2317 36.0902 23.1269C37.0845 23.0564 37.6414 23.0221 37.7612 23.0221C38.0026 23.0221 38.2212 23.0926 38.4151 23.2336C38.609 23.3746 38.7079 23.5938 38.7079 23.893C38.7079 24.1388 38.6775 24.3161 38.6166 24.4209C38.5558 24.5257 38.4246 24.579 38.2231 24.579C38.1433 24.579 37.9209 24.5524 37.5578 24.499C37.2898 24.4285 37.0616 24.3942 36.8734 24.3942C36.2423 24.3942 34.9801 24.4475 33.0867 24.5524C33.0202 24.6762 32.9422 24.7677 32.8548 24.8287C32.7673 24.8897 32.6894 24.9202 32.6228 24.9202C32.543 24.9202 32.4613 24.8935 32.3814 24.8401C32.3016 24.7868 32.2541 24.7086 32.2407 24.6019L31.334 24.7334C30.2865 24.9087 29.5071 24.9983 28.9977 24.9983C28.5547 24.9983 28.2183 24.8744 27.9902 24.6286C27.8685 24.4876 27.8096 24.2322 27.8096 23.8625C27.8096 23.7577 27.8533 23.6243 27.9407 23.4661C28.0282 23.3079 28.1194 23.2279 28.2126 23.2279C28.2392 23.2279 28.3437 23.2775 28.5243 23.3727C28.7049 23.4699 28.876 23.5176 29.0376 23.5176C29.5338 23.5176 30.2656 23.4833 31.2332 23.4128L32.159 23.3327L32.2807 19.4508C32.294 19.0468 32.3073 18.6809 32.3206 18.355C32.3339 18.0292 32.3415 17.7528 32.3415 17.5242L32.543 8.88944C31.1458 9.01331 30.4823 9.07429 30.5489 9.07429C29.1802 9.21531 28.3741 9.28582 28.1327 9.28582C27.9046 9.28582 27.6898 9.18863 27.4883 8.99616C27.2868 8.80178 27.186 8.55594 27.186 8.25675C27.186 8.04521 27.2298 7.87751 27.3172 7.75555C27.4046 7.63168 27.5225 7.5707 27.6689 7.5707C27.7753 7.5707 27.8837 7.58022 27.9902 7.59738C28.0966 7.61453 28.205 7.63358 28.3114 7.65073C28.646 7.7384 28.9692 7.78223 29.279 7.78223C29.5889 7.78223 30.1383 7.75174 30.9709 7.69075C31.8035 7.62977 32.3605 7.58975 32.6419 7.5726C32.6552 7.34392 32.716 7.15525 32.8224 7.0047C32.9289 6.85606 33.0715 6.77983 33.2445 6.77983C33.3243 6.77983 33.3927 6.85034 33.446 6.99136C33.4992 7.13239 33.5258 7.29056 33.5258 7.46588C34.3052 7.43158 35.7081 7.20099 37.7346 6.77983C37.8962 6.74553 38.073 6.64834 38.2688 6.49017C38.4627 6.33199 38.5748 6.25195 38.6014 6.25195C38.7364 6.25195 38.8638 6.32246 38.9835 6.46349C39.1052 6.60451 39.1641 6.77983 39.1641 6.99136C39.1641 7.32677 39.0368 7.56307 38.782 7.70409L38.7915 7.706Z" stroke="#996632" stroke-width="2" stroke-miterlimit="10"/>
<path d="M52.3646 20.0626C51.8 21.0669 51.0415 22.0389 50.0891 22.9803C49.1348 23.9217 48.0893 24.3924 46.9468 24.3924C45.7377 24.3924 44.7511 23.9388 43.9869 23.0317C43.2208 22.1246 42.8387 20.783 42.8387 19.005C42.8387 17.7911 43.0003 16.417 43.3216 14.8868C43.6429 13.3546 44.0193 12.0263 44.4489 10.9C44.8918 9.75663 45.4051 8.80569 45.9887 8.04913C46.5723 7.29256 47.1597 6.91333 47.7509 6.91333C48.3421 6.91333 48.7736 7.18584 49.0911 7.73278C49.4066 8.27781 49.5644 8.95624 49.5644 9.76616C49.5644 10.0654 49.5207 10.3703 49.4333 10.6771C49.3458 10.9858 49.2489 11.245 49.1405 11.4565C49.0321 11.668 48.9523 11.7729 48.8991 11.7729C48.7907 11.7729 48.7375 11.6928 48.7375 11.5346C48.7375 11.4813 48.7603 11.3631 48.8078 11.1783C48.8554 10.9934 48.8782 10.8391 48.8782 10.7171C48.8782 10.2769 48.8382 9.86335 48.7565 9.47649C48.69 9.143 48.555 8.86476 48.3535 8.64561C48.152 8.42645 47.9315 8.31592 47.6882 8.31592C46.7206 8.31592 45.8157 9.53938 44.9697 11.9863C44.6333 12.9715 44.3519 14.0807 44.1238 15.3136C43.8957 16.5466 43.7816 17.7339 43.7816 18.8792C43.7816 19.672 43.9052 20.3942 44.1542 21.0441C44.4033 21.6958 44.7587 22.2142 45.2207 22.601C45.6845 22.9879 46.2244 23.1823 46.8422 23.1823C47.8212 23.1823 48.7109 22.8755 49.5112 22.258C50.3096 21.6425 51.0985 20.8497 51.8779 19.8816C51.9045 19.8473 51.9996 19.6491 52.1593 19.287C52.3208 18.9268 52.4406 18.7458 52.5224 18.7458C52.6041 18.7458 52.6573 18.7725 52.6839 18.8258C52.7105 18.8792 52.7239 18.9764 52.7239 19.1155C52.7239 19.2908 52.6022 19.6091 52.3608 20.0665L52.3646 20.0626Z" stroke="#996632" stroke-width="2" stroke-miterlimit="10"/>
<path d="M65.0327 22.1495C64.9528 22.3248 64.8654 22.4144 64.7703 22.4144C64.1126 22.4144 62.7097 21.8255 60.5616 20.6459L60.0179 20.3295C59.2518 19.9065 58.6587 19.5901 58.2348 19.3786C57.8108 19.167 57.4059 18.9917 57.0162 18.8507C57.0162 21.0327 56.9763 22.5649 56.8946 23.4453C56.7463 24.1485 56.5524 24.5011 56.311 24.5011C56.1893 24.5011 56.0791 24.4573 55.9783 24.3696C55.8775 24.2819 55.8281 24.1676 55.8281 24.0266C55.8281 23.7102 55.849 23.2795 55.889 22.7326C55.9688 21.6063 56.0106 20.6382 56.0106 19.8283V18.7192C55.8756 18.5953 55.7787 18.4867 55.7179 18.3895C55.657 18.2923 55.6266 18.1837 55.6266 18.0598C55.6266 17.9017 55.6627 17.7568 55.7369 17.6234C55.811 17.4919 55.8947 17.3681 55.9878 17.2537C56.081 17.1394 56.1494 17.0479 56.1893 16.9774C56.2026 16.6077 56.2102 15.9655 56.2102 15.0507C56.2102 12.762 55.9612 10.3418 55.465 7.79003L55.3852 7.26215C55.3852 7.01632 55.4631 6.82194 55.6171 6.68092C55.7711 6.5399 55.9498 6.46938 56.1513 6.46938C56.2996 6.46938 56.4497 6.84862 56.6037 7.60518C56.7577 8.36174 56.8813 9.32603 56.9763 10.4961C57.0695 11.6662 57.117 12.842 57.117 14.0217V15.7902C57.3052 15.5253 57.7272 14.9192 58.3849 13.9683C59.0427 13.0174 59.6871 12.0664 60.3182 11.1174C61.379 9.48039 62.1983 8.01872 62.7743 6.73428C62.9226 6.38172 63.1032 5.92436 63.318 5.36217C63.5195 4.81714 63.6469 4.54272 63.7001 4.54272C63.8484 4.54272 63.9225 4.75426 63.9225 5.17732C63.9225 5.68805 63.8617 6.17591 63.7419 6.6428C63.6202 7.1097 63.4473 7.60709 63.2191 8.13496C62.8427 8.99825 62.4093 9.84628 61.9208 10.6829C61.4303 11.5195 60.8087 12.4647 60.0578 13.5205C59.7765 13.9073 59.5274 14.2427 59.3126 14.5248C59.0978 14.8068 58.9096 15.0622 58.748 15.2909C58.0504 16.2056 57.4934 16.9717 57.0771 17.5872C57.252 17.6749 57.6569 17.8693 58.2956 18.1685C58.9324 18.4677 59.7632 18.8469 60.7821 19.3043C61.5064 19.6397 62.1109 19.9084 62.5937 20.1104C63.0766 20.3124 63.4929 20.4934 63.8427 20.6516C63.9225 20.6878 64.0176 20.7259 64.124 20.7697C64.2305 20.8136 64.3464 20.8612 64.4662 20.9146C64.9224 21.109 65.1505 21.3205 65.1505 21.5492C65.1505 21.7779 65.1106 21.9799 65.0289 22.1571L65.0327 22.1495Z" stroke="#996632" stroke-width="2" stroke-miterlimit="10"/>
<path d="M87.1202 23.8608C87.0251 23.8608 86.3978 22.9155 85.2363 21.0232C84.0748 19.1308 83.1186 17.5167 82.3658 16.177C82.2575 15.9826 81.9153 15.3404 81.3393 14.2503C80.4934 12.6305 79.9706 11.6548 79.7691 11.3194L79.7292 13.3527L79.7083 15.3328C79.7083 16.5829 79.6987 17.9379 79.6778 19.3995C79.6569 20.8612 79.6341 22.0218 79.6075 22.885C79.5942 23.0966 79.5239 23.291 79.3965 23.4663C79.2691 23.6416 79.138 23.7312 79.003 23.7312C78.8547 23.7312 78.7521 23.674 78.6912 23.5597C78.6304 23.4453 78.6 23.2204 78.6 22.887C78.6 22.6754 78.6266 22.0256 78.6798 20.9336C78.8015 18.9098 78.8604 17.2099 78.8604 15.8378C78.8604 14.7458 78.8737 13.7129 78.9003 12.7353C78.9269 11.7577 78.9403 11.1555 78.9403 10.9268L78.9612 10.1607V10.0807C78.9612 9.88628 78.984 9.73383 79.0315 9.61949C79.079 9.50514 79.176 9.44797 79.3242 9.44797H79.425C79.5733 9.44797 79.8641 9.79672 80.3014 10.4904C80.7367 11.186 81.2918 12.1312 81.9628 13.328C82.1111 13.5738 82.2518 13.8158 82.3848 14.054C82.5198 14.2923 82.6472 14.5152 82.7669 14.7268C83.533 16.0112 83.9341 16.6896 83.976 16.7601C85.8826 19.9465 86.9225 21.7588 87.0974 22.199C87.0708 22.058 87.0232 21.7321 86.9567 21.2214C86.8902 20.7106 86.8255 20.0417 86.7647 19.2147C86.7039 18.3876 86.6735 17.5338 86.6735 16.6534C86.6735 15.0869 86.5594 13.0193 86.3313 10.4485C86.2647 9.60424 86.2305 9.08398 86.2305 8.89151C86.2305 8.22261 86.5195 7.88721 87.0974 7.88721C87.2323 7.88721 87.3312 8.06825 87.3996 8.42843C87.4662 8.7886 87.5137 9.55088 87.5403 10.7134C87.5669 11.8758 87.5802 13.732 87.5802 16.2856C87.5802 17.0955 87.603 17.8883 87.6506 18.662C87.6981 19.4376 87.7418 20.1237 87.7817 20.7221C87.8483 21.5492 87.8825 22.1742 87.8825 22.5973L87.9034 23.5482C87.9034 23.7598 87.641 23.8646 87.1183 23.8646L87.1202 23.8608Z" stroke="#996632" stroke-width="2" stroke-miterlimit="10"/>
<path d="M112.318 8.33896C112.156 8.55049 111.976 8.68199 111.774 8.73535C111.05 8.94688 110.223 9.06122 109.297 9.07837L109.377 9.89782C109.578 11.834 109.75 13.673 109.89 15.4167C110.031 17.1585 110.101 18.8317 110.101 20.4344C110.101 22.3363 109.826 23.6779 109.276 24.4612C108.725 25.2444 107.839 25.637 106.619 25.637C105.839 25.637 104.94 25.3988 103.919 24.9242C102.898 24.4497 102.022 23.859 101.292 23.1558C100.56 22.4526 100.195 21.8008 100.195 21.2024C100.195 20.9375 100.296 20.6841 100.497 20.4363C100.699 20.1905 100.927 19.979 101.182 19.8017C101.437 19.6264 101.617 19.5368 101.725 19.5368C101.9 19.5368 102.014 19.5978 102.068 19.7217C102.134 19.8627 102.168 19.9675 102.168 20.038C102.168 20.1257 102.121 20.2057 102.028 20.2763C101.813 20.4173 101.665 20.5316 101.585 20.6193C101.505 20.7069 101.463 20.8403 101.463 21.0157C101.463 21.4387 101.735 21.9132 102.279 22.4411C102.822 22.969 103.49 23.4226 104.282 23.8018C105.075 24.181 105.813 24.3697 106.497 24.3697C107.088 24.3697 107.563 24.282 107.926 24.1048C108.29 23.9295 108.571 23.5541 108.772 22.9823C108.974 22.4106 109.075 21.5531 109.075 20.4077C109.075 18.4887 108.847 15.3462 108.39 10.9822C108.35 10.5782 108.312 10.2123 108.28 9.88639C108.246 9.56051 108.223 9.28419 108.21 9.0555C107.297 9.0555 106.565 9.04598 106.014 9.02882C104.993 8.99452 104.134 8.91448 103.436 8.79061C103.235 8.75631 103.071 8.65531 102.942 8.48761C102.815 8.3199 102.75 8.11409 102.75 7.86635C102.75 7.76154 102.79 7.65482 102.872 7.55C102.952 7.44519 103.047 7.39183 103.153 7.39183C103.421 7.39183 103.731 7.41851 104.079 7.47187C105.046 7.59574 106.092 7.65672 107.221 7.65672H108.027C107.974 7.19935 107.953 6.87348 107.966 6.6791C107.98 6.52093 108.058 6.37038 108.198 6.22935C108.339 6.08833 108.483 6.01782 108.632 6.01782C108.793 6.01782 108.921 6.176 109.014 6.49234C109.054 6.63336 109.12 7.02022 109.215 7.65482C109.846 7.65482 110.346 7.62433 110.715 7.56144C111.084 7.50045 111.295 7.46044 111.35 7.44328C111.727 7.37277 111.974 7.33847 112.095 7.33847C112.23 7.33847 112.341 7.36515 112.428 7.41851C112.515 7.47187 112.559 7.55 112.559 7.65672C112.559 7.90256 112.479 8.13124 112.318 8.34277V8.33896Z" stroke="#996632" stroke-width="2" stroke-miterlimit="10"/>
<path d="M125.288 17.265C125.047 17.3698 124.754 17.4365 124.412 17.4632C124.07 17.4898 123.845 17.5032 123.737 17.5032C123.724 18.0482 123.697 18.6561 123.657 19.325C123.617 19.9939 123.583 20.5485 123.556 20.9887L123.496 21.8082L123.456 22.6524L123.334 24.6858C123.281 25.5833 123.058 26.0331 122.669 26.0331C122.52 26.0331 122.376 25.8082 122.235 25.3604C122.095 24.9106 122.024 24.5466 122.024 24.2646C122.024 24.1941 122.077 24.0531 122.186 23.8415C122.292 23.63 122.361 23.367 122.387 23.0488C122.44 22.5571 122.501 21.7376 122.568 20.5923C122.634 19.4489 122.682 18.4884 122.709 17.7147C122.186 17.7681 121.621 17.8462 121.017 17.9529C120.749 17.9891 120.144 18.0673 119.205 18.1911C118.266 18.315 117.526 18.3931 116.99 18.4294C116.937 19.5918 116.876 21.0078 116.81 22.681C116.743 24.3523 116.709 25.3737 116.709 25.7434C116.709 25.8844 116.726 26.0693 116.758 26.298C116.793 26.5267 116.81 26.702 116.81 26.8259C116.81 26.984 116.719 27.1422 116.538 27.3004C116.357 27.4586 116.213 27.5386 116.105 27.5386C115.97 27.5386 115.859 27.4242 115.772 27.1956C115.684 26.9669 115.641 26.702 115.641 26.4028C115.641 26.2446 115.654 25.9835 115.681 25.6234C115.707 25.2632 115.728 24.9507 115.741 24.6858C115.795 24.2112 115.829 23.8244 115.842 23.5233C115.909 22.4847 115.964 21.4823 116.004 20.5123C116.044 19.5442 116.07 18.8924 116.084 18.5589C115.238 18.7533 114.439 18.8486 113.686 18.8486C113.432 18.8486 113.213 18.7648 113.033 18.5971C112.852 18.4294 112.761 18.1873 112.761 17.871C112.761 17.6423 112.804 17.4708 112.892 17.3564C112.979 17.2421 113.156 17.1849 113.426 17.1849L114.492 17.2116C115.19 17.2478 115.755 17.265 116.184 17.265C116.251 15.769 116.285 14.5722 116.285 13.6746C116.285 11.6336 116.272 9.80226 116.245 8.18242V7.2048C116.245 6.93991 116.323 6.72456 116.477 6.55877C116.631 6.39107 116.81 6.30722 117.011 6.30722C117.16 6.30722 117.26 6.45777 117.314 6.75696C117.367 7.05615 117.393 7.39156 117.393 7.76126C117.393 8.13097 117.359 8.94089 117.293 10.1377C117.213 12.1806 117.171 13.263 117.171 13.385L117.07 17.1602C118.198 17.1259 120.112 16.8953 122.809 16.4741C122.863 15.9634 122.958 14.6256 123.091 12.4607C123.144 11.3173 123.191 10.4807 123.231 9.95281L123.353 7.89276C123.528 5.30482 123.615 3.68498 123.615 3.03513C123.615 2.80645 123.682 2.6216 123.817 2.48058C123.952 2.33955 124.106 2.26904 124.281 2.26904C124.522 2.26904 124.644 2.57777 124.644 3.19331C124.644 3.58016 124.577 4.61114 124.442 6.28244C124.294 8.46446 124.214 9.6803 124.201 9.92613C124.121 11.2811 124.043 12.5751 123.969 13.808C123.895 15.041 123.845 15.8681 123.819 16.2893C124.06 16.2359 124.275 16.1578 124.463 16.051C124.705 15.9462 124.893 15.8929 125.028 15.8929C125.163 15.8929 125.317 15.9977 125.492 16.2092C125.666 16.4208 125.754 16.5694 125.754 16.659C125.754 16.941 125.6 17.143 125.29 17.2669L125.288 17.265Z" stroke="#996632" stroke-width="2" stroke-miterlimit="10"/>
<path d="M140.049 18.2143C139.27 19.8684 138.27 21.2062 137.048 22.2277C135.825 23.2491 134.592 23.7598 133.343 23.7598C132.618 23.7598 131.932 23.5616 131.288 23.1653C130.643 22.7689 130.12 22.1838 129.717 21.4101C129.314 20.6364 129.113 19.7026 129.113 18.6106C129.113 16.745 129.482 14.8126 130.221 12.8154C130.959 10.8183 131.987 8.93923 133.303 7.17837C133.438 7.02019 133.565 6.91348 133.685 6.86202C133.807 6.80866 133.947 6.78198 134.107 6.78198C134.242 6.78198 134.371 6.82581 134.5 6.91348C134.628 7.00114 134.692 7.10786 134.692 7.22982C134.692 7.30033 134.67 7.40133 134.622 7.53283C134.574 7.66432 134.544 7.74817 134.531 7.78438C134.611 7.78438 134.709 7.77104 134.824 7.74436C134.938 7.71768 135.162 7.70434 135.498 7.70434C135.888 7.70434 136.415 7.78819 137.08 7.95589C137.745 8.12359 138.232 8.29511 138.54 8.47043C139.413 8.98116 140.078 9.63672 140.534 10.4371C140.99 11.2375 141.218 12.097 141.218 13.0117C141.218 14.824 140.829 16.5582 140.051 18.2143H140.049ZM139.808 11.0717C139.445 10.4295 138.909 9.89589 138.196 9.47473C137.806 9.24605 137.316 9.13171 136.726 9.13171C136.538 9.13171 136.283 9.14886 135.96 9.18507L135.215 9.21175C134.571 9.21175 134.248 9.03642 134.248 8.68387C134.248 8.56 134.253 8.44566 134.268 8.34084C134.282 8.23603 134.295 8.16552 134.308 8.12931C134.027 8.12931 133.797 8.23412 133.624 8.44566C132.523 9.94163 131.674 11.5348 131.077 13.2251C130.48 14.9155 130.181 16.562 130.181 18.1628C130.181 19.6588 130.466 20.7469 131.037 21.4235C131.607 22.1019 132.388 22.4392 133.383 22.4392C134.51 22.4392 135.614 22.0161 136.696 21.1719C137.776 20.3277 138.656 19.2186 139.335 17.8446C140.013 16.4725 140.352 15.0451 140.352 13.5663C140.352 12.5448 140.171 11.7139 139.808 11.0717Z" stroke="#996632" stroke-width="2" stroke-miterlimit="10"/>
<path d="M155.898 22.6507C155.763 22.9499 155.622 23.1005 155.476 23.1005C155.341 23.1005 155.213 23.07 155.094 23.009C154.972 22.948 154.791 22.828 154.55 22.6527C153.704 22.0009 152.596 21.3682 151.227 20.7508C150.623 20.4859 149.908 20.2095 149.083 19.9199C148.258 19.6302 147.609 19.4149 147.14 19.2738L147.281 22.6793C147.294 23.1538 147.341 23.556 147.421 23.8799C147.501 24.2058 147.543 24.4116 147.543 24.5012C147.543 24.6956 147.469 24.8575 147.321 24.989C147.172 25.1205 147.018 25.1872 146.857 25.1872C146.655 25.1872 146.528 25.0024 146.475 24.6327C146.475 24.5965 146.457 24.4383 146.425 24.1582C146.391 23.8761 146.374 23.4816 146.374 22.969C146.374 22.6355 146.347 21.9228 146.294 20.8308C146.281 20.4611 146.267 20.1047 146.254 19.7617C146.241 19.4187 146.233 19.1157 146.233 18.8508C146.193 18.7974 146.142 18.7364 146.083 18.6659C146.022 18.5954 145.973 18.4982 145.933 18.3763C145.893 18.2181 145.859 18.0504 145.832 17.8751C145.805 17.6997 145.792 17.5663 145.792 17.4787C145.792 17.3548 145.819 17.2595 145.872 17.189C145.925 17.1185 146.007 17.0404 146.113 16.9508C146.034 12.5505 145.992 10.0331 145.992 9.39853C145.992 8.83444 145.997 8.31609 146.013 7.84157C146.026 7.36705 146.034 7.0488 146.034 6.89063C145.954 6.90778 145.712 6.95161 145.309 7.02212C144.906 7.09263 144.585 7.16314 144.342 7.23365C143.482 7.49854 142.828 7.74819 142.378 7.9864C141.927 8.22461 141.496 8.49332 141.08 8.79251C140.958 8.89733 140.842 8.98118 140.728 9.04407C140.614 9.10505 140.504 9.13744 140.395 9.13744C140.287 9.13744 140.194 9.07074 140.114 8.93925C140.034 8.80776 139.992 8.64387 139.992 8.45139C139.992 8.1179 140.422 7.72913 141.281 7.28892C142.14 6.8487 143.074 6.48852 144.081 6.20648C144.646 6.04831 145.363 5.9111 146.237 5.79676C147.11 5.68241 147.921 5.62524 148.674 5.62524C149.963 5.62524 151.06 5.8101 151.967 6.1798C152.873 6.54951 153.558 7.06976 154.021 7.73676C154.485 8.40566 154.717 9.17175 154.717 10.0331C154.717 11.1422 154.476 12.0932 153.993 12.884C153.51 13.6768 152.868 14.3629 152.069 14.9441C151.271 15.5253 150.185 16.1847 148.817 16.9241C148.467 17.1357 148.123 17.33 147.779 17.5054C147.436 17.6807 147.205 17.8046 147.083 17.8751C147.083 17.9799 147.089 18.0599 147.104 18.1133C148.554 18.5363 149.984 19.0204 151.394 19.5654L151.816 19.7236C153.28 20.3048 154.36 20.7584 155.059 21.0843C155.757 21.4101 156.107 21.6788 156.107 21.8904C156.107 22.1019 156.04 22.3573 155.905 22.6565L155.898 22.6507ZM153.119 8.419C152.729 7.92733 152.141 7.52522 151.356 7.21841C150.571 6.90968 149.621 6.75723 148.507 6.75723C147.674 6.75723 147.151 6.77438 146.937 6.81059C146.923 6.93446 146.906 7.22412 146.885 7.68149C146.864 8.13886 146.855 8.59623 146.855 9.05359L146.935 13.2785L147.014 16.5525C147.136 16.5354 147.374 16.4515 147.729 16.301C148.085 16.1523 148.383 16.0056 148.625 15.8646C150.33 14.967 151.602 14.0656 152.442 13.1585C153.28 12.2514 153.7 11.2089 153.7 10.0293C153.7 9.44807 153.506 8.91257 153.117 8.419H153.119Z" stroke="#996632" stroke-width="2" stroke-miterlimit="10"/>
<path d="M170.338 27.6017C170.404 27.857 170.478 28.0419 170.56 28.1562C170.64 28.2706 170.682 28.3716 170.682 28.4592C170.682 28.5831 170.632 28.6784 170.532 28.7489C170.431 28.8194 170.321 28.8537 170.199 28.8537C169.904 28.8537 169.659 28.7432 169.463 28.524C169.269 28.303 169.17 27.9828 169.17 27.5597C169.17 25.3415 169.184 23.5292 169.21 22.1209L169.25 19.7711C169.29 18.1341 169.311 16.9107 169.311 16.1008C167.969 20.0265 166.654 22.988 165.365 24.9851C164.076 26.9823 162.633 27.9828 161.034 27.9828C159.852 27.9828 158.987 27.5083 158.436 26.5573C157.884 25.6064 157.611 24.1276 157.611 22.1209C157.611 19.4281 158.074 16.7925 159 14.2122C159.926 11.6338 161.118 9.53374 162.574 7.91389C164.03 6.29405 165.503 5.48413 166.994 5.48413C167.463 5.48413 167.783 5.67851 167.95 6.06537C168.117 6.45222 168.201 6.85814 168.201 7.2793C168.201 7.70046 168.171 8.06826 168.11 8.32171C168.049 8.57708 167.979 8.70476 167.899 8.70476C167.832 8.70476 167.781 8.62472 167.748 8.46655C167.714 8.30837 167.678 8.02633 167.638 7.62232C167.598 7.23547 167.53 6.94961 167.437 6.76476C167.344 6.57991 167.174 6.48843 166.933 6.48843C165.697 6.48843 164.426 7.2812 163.116 8.86484C161.806 10.4485 160.719 12.4514 159.854 14.8716C158.987 17.2918 158.555 19.6549 158.555 21.9608C158.555 23.4225 158.74 24.5621 159.109 25.3796C159.477 26.1991 160.146 26.6069 161.112 26.6069C162.16 26.6069 163.133 26.0695 164.032 24.9966C164.931 23.9218 165.733 22.5992 166.439 21.0232C167.144 19.4472 167.979 17.3566 168.946 14.7515C168.262 14.9269 167.302 15.2794 166.066 15.8073L165.281 16.1503L164.536 16.4667C164.04 16.6953 163.637 16.8669 163.327 16.9812C163.017 17.0955 162.762 17.1527 162.561 17.1527C162.426 17.1527 162.323 17.0689 162.249 16.9012C162.175 16.7335 162.139 16.5543 162.139 16.3599C162.139 16.1141 162.414 15.8626 162.964 15.6072C163.515 15.3518 164.34 15.066 165.441 14.7496C165.87 14.6258 166.488 14.4161 167.294 14.115C167.429 14.0617 167.834 13.9207 168.513 13.692C169.191 13.4633 169.665 13.3489 169.933 13.3489H170.165C170.292 13.3489 170.383 13.4156 170.436 13.5471C170.49 13.6786 170.516 13.8864 170.516 14.1684C170.516 14.3266 170.436 14.4676 170.275 14.5915L170.254 16.6248C170.214 17.9969 170.193 19.4948 170.193 21.1128V26.3153C170.22 26.9137 170.267 27.3406 170.334 27.5959L170.338 27.6017Z" stroke="#996632" stroke-width="2" stroke-miterlimit="10"/>
<path d="M183.65 7.54805C183.287 7.81294 182.721 8.09308 181.949 8.39227C181.177 8.69147 180.542 8.903 180.046 9.02687C179.267 9.22125 178.485 9.37561 177.7 9.48805C176.915 9.60239 176.407 9.66909 176.179 9.68624C176.193 10.7077 176.214 11.7596 176.24 12.8421C176.267 13.9245 176.288 14.6677 176.301 15.0736C176.824 14.986 177.611 14.8183 178.658 14.5724L179.424 14.4143C180.27 14.2199 180.92 13.8692 181.379 13.3585C181.62 13.1127 181.795 12.9888 181.901 12.9888C181.994 12.9888 182.072 13.0555 182.133 13.187C182.194 13.3185 182.224 13.4557 182.224 13.5967C182.224 13.9131 181.953 14.2618 181.409 14.6391C180.865 15.0184 180.265 15.2947 179.607 15.47C179.056 15.6282 178.44 15.7788 177.753 15.9198C177.069 16.0608 176.618 16.1485 176.404 16.1847C176.484 19.1957 176.719 21.4311 177.109 22.8908C177.499 23.0661 177.881 23.1938 178.257 23.2739C178.634 23.3539 179.116 23.392 179.708 23.392C180.299 23.392 180.861 23.291 181.399 23.089C181.936 22.887 182.369 22.6355 182.698 22.3363C183.027 22.0371 183.192 21.755 183.192 21.492C183.192 21.351 183.171 21.2157 183.131 21.0823C183.091 20.9508 183.036 20.8136 182.97 20.6726C182.943 20.6192 182.899 20.5373 182.838 20.421C182.778 20.3067 182.747 20.2152 182.747 20.1447C182.747 19.9694 182.896 19.8798 183.19 19.8798C183.405 19.8798 183.589 19.998 183.743 20.2362C183.897 20.4744 183.975 20.7336 183.975 21.0156C183.975 21.5797 183.783 22.1343 183.401 22.6793C183.019 23.2243 182.494 23.6702 181.831 24.0133C181.166 24.3563 180.432 24.5278 179.626 24.5278C178.82 24.5278 178.135 24.4706 177.613 24.3563C177.09 24.242 176.693 24.0171 176.425 23.6836C176.103 23.2091 175.877 22.382 175.75 21.2024C175.622 20.0227 175.512 18.4467 175.417 16.4762C175.162 16.5639 174.877 16.6401 174.562 16.7011C174.246 16.7621 174.008 16.7926 173.847 16.7926C173.685 16.7926 173.554 16.7259 173.453 16.5944C173.353 16.4629 173.303 16.299 173.303 16.1065C173.303 15.9827 173.32 15.8779 173.354 15.7902C173.389 15.7025 173.438 15.6492 173.505 15.632C173.948 15.5615 174.271 15.5177 174.472 15.5005L175.339 15.369C175.286 13.0974 175.231 11.2508 175.178 9.82345C174.976 9.82345 174.814 9.83298 174.695 9.85013L173.769 9.87681C173.647 9.87681 173.554 9.83298 173.488 9.74532C173.421 9.65766 173.387 9.56046 173.387 9.45565C173.387 9.03259 173.602 8.75245 174.031 8.61143C174.193 8.57712 174.396 8.53711 174.645 8.49327C174.894 8.44944 175.058 8.42657 175.14 8.42657C175.394 8.05687 175.676 7.87202 175.985 7.87202C176.039 7.87202 176.082 7.92919 176.117 8.04353C176.151 8.15787 176.166 8.24172 176.166 8.29508C177.052 8.24172 178.107 8.11023 179.327 7.8987C180.133 7.75767 181.375 7.42418 183.053 6.89439L183.798 6.68286C183.933 6.68286 184 6.78767 184 6.99921C184 7.21074 183.886 7.39559 183.658 7.55377L183.65 7.54805Z" stroke="#996632" stroke-width="2" stroke-miterlimit="10"/>
<path d="M10.5258 18.7953C9.96123 19.7996 9.20274 20.7715 8.25035 21.7129C7.29605 22.6543 6.25051 23.1251 5.10802 23.1251C3.899 23.1251 2.91239 22.6715 2.14819 21.7644C1.3821 20.8573 1 19.5157 1 17.7376C1 16.5237 1.16158 15.1497 1.48285 13.6194C1.80412 12.0873 2.18051 10.759 2.61013 9.63272C3.05306 8.4893 3.56633 7.53835 4.14993 6.78179C4.73353 6.02523 5.32093 5.646 5.91214 5.646C6.50334 5.646 6.93487 5.91851 7.25233 6.46545C7.5679 7.01048 7.72568 7.6889 7.72568 8.49883C7.72568 8.79802 7.68195 9.10293 7.59451 9.40975C7.50706 9.71847 7.41011 9.97765 7.30176 10.1892C7.1934 10.4007 7.11356 10.5055 7.06033 10.5055C6.95198 10.5055 6.89875 10.4255 6.89875 10.2673C6.89875 10.214 6.92156 10.0958 6.96909 9.91095C7.01661 9.72609 7.03942 9.57173 7.03942 9.44977C7.03942 9.00955 6.9995 8.59602 6.91776 8.20916C6.85122 7.87566 6.71626 7.59743 6.51475 7.37828C6.31325 7.15912 6.09273 7.04859 5.84941 7.04859C4.88181 7.04859 3.97694 8.27205 3.131 10.719C2.79453 11.7042 2.51318 12.8133 2.28506 14.0463C2.05695 15.2793 1.94289 16.4665 1.94289 17.6119C1.94289 18.4046 2.06645 19.1269 2.31548 19.7767C2.56451 20.4285 2.91999 20.9468 3.38193 21.3337C3.84577 21.7206 4.38565 21.9149 5.00347 21.9149C5.98248 21.9149 6.87214 21.6081 7.67245 20.9907C8.47086 20.3751 9.25977 19.5824 10.0392 18.6143C10.0658 18.58 10.1608 18.3818 10.3205 18.0197C10.4821 17.6595 10.6019 17.4785 10.6836 17.4785C10.7653 17.4785 10.8186 17.5052 10.8452 17.5585C10.8718 17.6119 10.8851 17.7091 10.8851 17.8482C10.8851 18.0235 10.7634 18.3418 10.522 18.7991L10.5258 18.7953Z" stroke="#FCBC86" stroke-width="2" stroke-miterlimit="10"/>
<path d="M23.5153 15.9959C23.2739 16.1007 22.9811 16.1674 22.6389 16.1941C22.2967 16.2208 22.0724 16.2341 21.9641 16.2341C21.9508 16.7792 21.9242 17.3871 21.8842 18.056C21.8443 18.7249 21.8101 19.2794 21.7835 19.7197L21.7227 20.5391L21.6827 21.3833L21.5611 23.4167C21.5078 24.3143 21.2854 24.764 20.8957 24.764C20.7474 24.764 20.603 24.5392 20.4623 24.0913C20.3216 23.6416 20.2513 23.2776 20.2513 22.9956C20.2513 22.925 20.3045 22.784 20.4129 22.5725C20.5193 22.361 20.5878 22.098 20.6144 21.7797C20.6676 21.2881 20.7284 20.4686 20.795 19.3233C20.8615 18.1799 20.909 17.2194 20.9356 16.4457C20.4129 16.499 19.8483 16.5772 19.2438 16.6839C18.9757 16.7201 18.3712 16.7982 17.4321 16.9221C16.493 17.046 15.7536 17.1241 15.2175 17.1603C15.1643 18.3228 15.1034 19.7387 15.0369 21.4119C14.9704 23.0832 14.9361 24.1047 14.9361 24.4744C14.9361 24.6154 14.9533 24.8003 14.9856 25.0289C15.0198 25.2576 15.035 25.4329 15.035 25.5568C15.035 25.715 14.9437 25.8732 14.7632 26.0313C14.5826 26.1895 14.4381 26.2695 14.3297 26.2695C14.1948 26.2695 14.0845 26.1552 13.9971 25.9265C13.9096 25.6978 13.8659 25.4329 13.8659 25.1337C13.8659 24.9756 13.8792 24.7145 13.9058 24.3543C13.9324 23.9941 13.9533 23.6816 13.9666 23.4167C14.0199 22.9422 14.0541 22.5553 14.0674 22.2542C14.1339 21.2156 14.1891 20.2132 14.229 19.2432C14.2689 18.2751 14.2955 17.6234 14.3088 17.2899C13.4629 17.4843 12.6645 17.5796 11.9117 17.5796C11.6569 17.5796 11.4383 17.4957 11.2577 17.328C11.0771 17.1603 10.9859 16.9183 10.9859 16.6019C10.9859 16.3733 11.0296 16.2017 11.1171 16.0874C11.2045 15.9731 11.3813 15.9159 11.6512 15.9159L12.7177 15.9426C13.4154 15.9788 13.9799 15.9959 14.4096 15.9959C14.4761 14.5 14.5103 13.3032 14.5103 12.4056C14.5103 10.3646 14.497 8.53322 14.4704 6.91338V5.93576C14.4704 5.67086 14.5483 5.45552 14.7023 5.28972C14.8563 5.12202 15.035 5.03817 15.2365 5.03817C15.3848 5.03817 15.4855 5.18872 15.5388 5.48792C15.592 5.78711 15.6186 6.12251 15.6186 6.49222C15.6186 6.86192 15.5844 7.67185 15.5178 8.86862C15.438 10.9115 15.3962 11.994 15.3962 12.1159L15.2954 15.8911C16.4227 15.8568 18.337 15.6262 21.0345 15.2051C21.0877 14.6943 21.1828 13.3565 21.3158 11.1917C21.3691 10.0483 21.4166 9.21165 21.4565 8.68377L21.5782 6.62371C21.7531 4.03578 21.8405 2.41593 21.8405 1.76609C21.8405 1.53741 21.907 1.35255 22.042 1.21153C22.177 1.07051 22.331 1 22.5059 1C22.7473 1 22.8689 1.30872 22.8689 1.92426C22.8689 2.31112 22.8024 3.3421 22.6674 5.0134C22.5192 7.19542 22.4393 8.41126 22.426 8.65709C22.3462 10.012 22.2682 11.306 22.1941 12.539C22.12 13.772 22.0705 14.5991 22.0439 15.0202C22.2853 14.9669 22.5002 14.8887 22.6884 14.782C22.9298 14.6772 23.118 14.6238 23.2529 14.6238C23.3879 14.6238 23.5419 14.7286 23.7168 14.9402C23.8917 15.1517 23.9791 15.3004 23.9791 15.3899C23.9791 15.672 23.8251 15.874 23.5153 15.9978V15.9959Z" stroke="#FCBC86" stroke-width="2" stroke-miterlimit="10"/>
<path d="M38.1357 6.43696C37.881 6.57798 37.5046 6.70947 37.0084 6.83334C36.4571 6.97436 35.7595 7.10967 34.9135 7.24307C34.0676 7.37456 33.3833 7.45841 32.8586 7.49462C32.8187 8.25118 32.7654 10.4351 32.697 14.0426C32.6305 17.652 32.5886 20.3181 32.5753 22.0427C33.2996 22.0256 34.2539 21.9627 35.4344 21.8579C36.4286 21.7873 36.9856 21.753 37.1054 21.753C37.3468 21.753 37.5654 21.8236 37.7593 21.9646C37.9532 22.1056 38.0521 22.3248 38.0521 22.624C38.0521 22.8698 38.0217 23.047 37.9608 23.1518C37.9 23.2566 37.7688 23.31 37.5673 23.31C37.4875 23.31 37.2651 23.2833 36.902 23.23C36.6339 23.1595 36.4058 23.1251 36.2176 23.1251C35.5865 23.1251 34.3242 23.1785 32.4309 23.2833C32.3643 23.4072 32.2864 23.4987 32.1989 23.5596C32.1115 23.6206 32.0336 23.6511 31.967 23.6511C31.8872 23.6511 31.8054 23.6244 31.7256 23.5711C31.6458 23.5177 31.5982 23.4396 31.5849 23.3329L30.6782 23.4644C29.6307 23.6397 28.8513 23.7293 28.3418 23.7293C27.8989 23.7293 27.5624 23.6054 27.3343 23.3595C27.2127 23.2185 27.1537 22.9632 27.1537 22.5935C27.1537 22.4886 27.1975 22.3552 27.2849 22.1971C27.3723 22.0389 27.4636 21.9589 27.5567 21.9589C27.5834 21.9589 27.6879 22.0084 27.8685 22.1037C28.0491 22.2009 28.2202 22.2485 28.3818 22.2485C28.8779 22.2485 29.6098 22.2142 30.5774 22.1437L31.5032 22.0637L31.6248 18.1818C31.6382 17.7778 31.6515 17.4119 31.6648 17.086C31.6781 16.7601 31.6857 16.4838 31.6857 16.2551L31.8872 7.6204C30.49 7.74427 29.8265 7.80525 29.8931 7.80525C28.5243 7.94627 27.7183 8.01678 27.4769 8.01678C27.2488 8.01678 27.034 7.91959 26.8325 7.72711C26.631 7.53273 26.5302 7.2869 26.5302 6.9877C26.5302 6.77617 26.5739 6.60847 26.6614 6.48651C26.7488 6.36263 26.8667 6.30165 27.0131 6.30165C27.1195 6.30165 27.2279 6.31118 27.3343 6.32833C27.4408 6.34548 27.5491 6.36454 27.6556 6.38169C27.9902 6.46935 28.3133 6.51319 28.6232 6.51319C28.9331 6.51319 29.4824 6.48269 30.3151 6.42171C31.1477 6.36073 31.7047 6.32071 31.986 6.30356C31.9993 6.07487 32.0602 5.88621 32.1666 5.73566C32.2731 5.58702 32.4157 5.51079 32.5886 5.51079C32.6685 5.51079 32.7369 5.5813 32.7901 5.72232C32.8434 5.86334 32.87 6.02152 32.87 6.19684C33.6494 6.16254 35.0523 5.93195 37.0788 5.51079C37.2403 5.47649 37.4171 5.3793 37.6129 5.22112C37.8068 5.06295 37.919 4.98291 37.9456 4.98291C38.0806 4.98291 38.2079 5.05342 38.3277 5.19444C38.4494 5.33546 38.5083 5.51079 38.5083 5.72232C38.5083 6.05772 38.3809 6.29403 38.1262 6.43505L38.1357 6.43696Z" stroke="#FCBC86" stroke-width="2" stroke-miterlimit="10"/>
<path d="M51.7106 18.7953C51.146 19.7996 50.3876 20.7715 49.4352 21.7129C48.4809 22.6543 47.4353 23.1251 46.2928 23.1251C45.0838 23.1251 44.0972 22.6715 43.333 21.7644C42.5669 20.8573 42.1848 19.5157 42.1848 17.7376C42.1848 16.5237 42.3464 15.1497 42.6677 13.6194C42.9889 12.0873 43.3653 10.759 43.7949 9.63272C44.2379 8.4893 44.7511 7.53835 45.3347 6.78179C45.9183 6.02523 46.5058 5.646 47.097 5.646C47.6882 5.646 48.1197 5.91851 48.4371 6.46545C48.7527 7.01048 48.9105 7.6889 48.9105 8.49883C48.9105 8.79802 48.8668 9.10293 48.7793 9.40975C48.6919 9.71847 48.5949 9.97765 48.4866 10.1892C48.3782 10.4007 48.2984 10.5055 48.2451 10.5055C48.1368 10.5055 48.0836 10.4255 48.0836 10.2673C48.0836 10.214 48.1064 10.0958 48.1539 9.91095C48.2014 9.72609 48.2242 9.57173 48.2242 9.44977C48.2242 9.00955 48.1843 8.59602 48.1026 8.20916C48.036 7.87566 47.9011 7.59743 47.6996 7.37828C47.4981 7.15912 47.2775 7.04859 47.0342 7.04859C46.0666 7.04859 45.1618 8.27205 44.3158 10.719C43.9793 11.7042 43.698 12.8133 43.4699 14.0463C43.2418 15.2793 43.1277 16.4665 43.1277 17.6119C43.1277 18.4046 43.2513 19.1269 43.5003 19.7767C43.7493 20.4285 44.1048 20.9468 44.5667 21.3337C45.0306 21.7206 45.5705 21.9149 46.1883 21.9149C47.1673 21.9149 48.057 21.6081 48.8573 20.9907C49.6557 20.3751 50.4446 19.5824 51.224 18.6143C51.2506 18.58 51.3456 18.3818 51.5053 18.0197C51.6669 17.6595 51.7867 17.4785 51.8684 17.4785C51.9502 17.4785 52.0034 17.5052 52.03 17.5585C52.0566 17.6119 52.0699 17.7091 52.0699 17.8482C52.0699 18.0235 51.9483 18.3418 51.7068 18.7991L51.7106 18.7953Z" stroke="#FCBC86" stroke-width="2" stroke-miterlimit="10"/>
<path d="M64.3769 20.8802C64.297 21.0555 64.2096 21.1451 64.1145 21.1451C63.4568 21.1451 62.0539 20.5562 59.9057 19.3766L59.3621 19.0602C58.596 18.6372 58.0029 18.3208 57.5789 18.1093C57.155 17.8978 56.7501 17.7224 56.3604 17.5814C56.3604 19.7634 56.3205 21.2956 56.2387 22.176C56.0905 22.8793 55.8966 23.2318 55.6551 23.2318C55.5335 23.2318 55.4232 23.188 55.3225 23.1003C55.2217 23.0127 55.1723 22.8983 55.1723 22.7573C55.1723 22.4409 55.1932 22.0103 55.2331 21.4633C55.313 20.3371 55.3548 19.369 55.3548 18.559V17.4499C55.2198 17.3261 55.1229 17.2174 55.062 17.1202C55.0012 17.023 54.9708 16.9144 54.9708 16.7905C54.9708 16.6324 55.0069 16.4875 55.081 16.3541C55.1552 16.2227 55.2388 16.0988 55.332 15.9844C55.4251 15.8701 55.4936 15.7786 55.5335 15.7081C55.5468 15.3384 55.5544 14.6962 55.5544 13.7815C55.5544 11.4927 55.3054 9.07248 54.8092 6.52075L54.7294 5.99287C54.7294 5.74703 54.8073 5.55265 54.9613 5.41163C55.1153 5.27061 55.294 5.2001 55.4955 5.2001C55.6437 5.2001 55.7939 5.57933 55.9479 6.33589C56.1019 7.09246 56.2254 8.05674 56.3205 9.22684C56.4136 10.3969 56.4612 11.5728 56.4612 12.7524V14.5209C56.6494 14.256 57.0714 13.65 57.7291 12.699C58.3869 11.7481 59.0313 10.7971 59.6624 9.84809C60.7232 8.2111 61.5425 6.74943 62.1185 5.46499C62.2668 5.11244 62.4474 4.65507 62.6622 4.09289C62.8637 3.54786 62.991 3.27344 63.0443 3.27344C63.1925 3.27344 63.2667 3.48497 63.2667 3.90803C63.2667 4.41876 63.2059 4.90662 63.0861 5.37352C62.9644 5.84041 62.7914 6.3378 62.5633 6.86568C62.1869 7.72896 61.7535 8.57699 61.2649 9.41359C60.7745 10.2502 60.1529 11.1954 59.402 12.2512C59.1206 12.638 58.8716 12.9734 58.6568 13.2555C58.442 13.5375 58.2538 13.7929 58.0922 14.0216C57.3945 14.9363 56.8376 15.7024 56.4212 16.3179C56.5961 16.4056 57.001 16.6 57.6398 16.8992C58.2766 17.1984 59.1073 17.5776 60.1263 18.035C60.8505 18.3704 61.455 18.6391 61.9379 18.8411C62.4207 19.0431 62.8371 19.2241 63.1868 19.3823C63.2667 19.4185 63.3617 19.4566 63.4682 19.5004C63.5746 19.5443 63.6906 19.5919 63.8104 19.6453C64.2666 19.8397 64.4947 20.0512 64.4947 20.2799C64.4947 20.5086 64.4548 20.7106 64.3731 20.8878L64.3769 20.8802Z" stroke="#FCBC86" stroke-width="2" stroke-miterlimit="10"/>
<path d="M85.955 22.7021C85.8599 22.7021 85.2326 21.7568 84.0711 19.8645C82.9096 17.9721 81.9534 16.358 81.2006 15.0183C81.0922 14.8239 80.7501 14.1817 80.1741 13.0916C79.3281 11.4718 78.8054 10.4961 78.6039 10.1607L78.5639 12.1941L78.543 14.1741C78.543 15.4242 78.5335 16.7792 78.5126 18.2408C78.4917 19.7025 78.4689 20.8631 78.4423 21.7264C78.429 21.9379 78.3586 22.1323 78.2313 22.3076C78.1039 22.4829 77.9727 22.5725 77.8378 22.5725C77.6895 22.5725 77.5868 22.5153 77.526 22.401C77.4652 22.2866 77.4348 22.0618 77.4348 21.7283C77.4348 21.5167 77.4614 20.8669 77.5146 19.7749C77.6363 17.7511 77.6952 16.0512 77.6952 14.6791C77.6952 13.5871 77.7085 12.5542 77.7351 11.5766C77.7617 10.599 77.775 9.99679 77.775 9.7681L77.7959 9.00201V8.92197C77.7959 8.72759 77.8188 8.57514 77.8663 8.46079C77.9138 8.34645 78.0108 8.28928 78.159 8.28928H78.2598C78.4081 8.28928 78.6989 8.63802 79.1361 9.3317C79.5715 10.0273 80.1265 10.9725 80.7976 12.1693C80.9459 12.4151 81.0865 12.6571 81.2196 12.8954C81.3546 13.1336 81.4819 13.3565 81.6017 13.5681C82.3678 14.8525 82.7689 15.5309 82.8107 15.6014C84.7174 18.7878 85.7573 20.6001 85.9321 21.0403C85.9055 20.8993 85.858 20.5734 85.7915 20.0627C85.7249 19.552 85.6603 18.8831 85.5995 18.056C85.5386 17.2289 85.5082 16.3752 85.5082 15.4947C85.5082 13.9282 85.3942 11.8606 85.1661 9.28977C85.0995 8.44555 85.0653 7.92529 85.0653 7.73282C85.0653 7.06392 85.3543 6.72852 85.9321 6.72852C86.0671 6.72852 86.166 6.90956 86.2344 7.26973C86.3009 7.62991 86.3485 8.39219 86.3751 9.55467C86.4017 10.7171 86.415 12.5733 86.415 15.1269C86.415 15.9368 86.4378 16.7296 86.4853 17.5033C86.5329 18.2789 86.5766 18.965 86.6165 19.5634C86.683 20.3905 86.7173 21.0155 86.7173 21.4386L86.7382 22.3895C86.7382 22.6011 86.4758 22.7059 85.9531 22.7059L85.955 22.7021Z" stroke="#FCBC86" stroke-width="2" stroke-miterlimit="10"/>
<path d="M111.664 7.07163C111.502 7.28316 111.322 7.41465 111.12 7.46801C110.396 7.67955 109.569 7.79389 108.643 7.81104L108.723 8.63049C108.925 10.5667 109.096 12.4057 109.236 14.1494C109.377 15.8912 109.447 17.5644 109.447 19.1671C109.447 21.069 109.172 22.4106 108.622 23.1938C108.071 23.9771 107.185 24.3696 105.965 24.3696C105.185 24.3696 104.286 24.1314 103.265 23.6569C102.244 23.1824 101.368 22.5916 100.638 21.8884C99.9063 21.1852 99.5413 20.5335 99.5413 19.9351C99.5413 19.6702 99.642 19.4167 99.8435 19.169C100.045 18.9232 100.273 18.7116 100.528 18.5344C100.783 18.3591 100.963 18.2695 101.072 18.2695C101.246 18.2695 101.36 18.3305 101.414 18.4544C101.48 18.5954 101.514 18.7002 101.514 18.7707C101.514 18.8584 101.467 18.9384 101.374 19.0089C101.159 19.1499 101.011 19.2643 100.931 19.3519C100.851 19.4396 100.809 19.573 100.809 19.7483C100.809 20.1714 101.081 20.6459 101.625 21.1738C102.168 21.7017 102.836 22.1552 103.628 22.5345C104.421 22.9137 105.159 23.1024 105.843 23.1024C106.434 23.1024 106.909 23.0147 107.273 22.8375C107.636 22.6621 107.917 22.2867 108.118 21.715C108.32 21.1433 108.421 20.2857 108.421 19.1404C108.421 17.2214 108.193 14.0789 107.736 9.71483C107.696 9.31082 107.658 8.94493 107.626 8.61905C107.592 8.29318 107.569 8.01685 107.556 7.78817C106.643 7.78817 105.911 7.77864 105.36 7.76149C104.339 7.72719 103.48 7.64715 102.782 7.52328C102.581 7.48898 102.417 7.38797 102.288 7.22027C102.161 7.05257 102.096 6.84676 102.096 6.59901C102.096 6.4942 102.136 6.38748 102.218 6.28267C102.298 6.17786 102.393 6.1245 102.499 6.1245C102.767 6.1245 103.077 6.15118 103.425 6.20454C104.393 6.32841 105.438 6.38939 106.567 6.38939H107.373C107.32 5.93202 107.299 5.60615 107.312 5.41177C107.326 5.25359 107.404 5.10304 107.544 4.96202C107.685 4.821 107.83 4.75049 107.978 4.75049C108.139 4.75049 108.267 4.90866 108.36 5.22501C108.4 5.36603 108.466 5.75289 108.561 6.38748C109.193 6.38748 109.693 6.35699 110.061 6.2941C110.43 6.23312 110.641 6.1931 110.696 6.17595C111.073 6.10544 111.32 6.07114 111.441 6.07114C111.576 6.07114 111.687 6.09782 111.774 6.15118C111.862 6.20454 111.905 6.28267 111.905 6.38939C111.905 6.63522 111.825 6.86391 111.664 7.07544V7.07163Z" stroke="#FCBC86" stroke-width="2" stroke-miterlimit="10"/>
<path d="M124.632 15.9959C124.391 16.1007 124.098 16.1674 123.756 16.1941C123.414 16.2208 123.189 16.2341 123.081 16.2341C123.068 16.7792 123.041 17.3871 123.001 18.056C122.961 18.7249 122.927 19.2794 122.901 19.7197L122.84 20.5391L122.8 21.3833L122.678 23.4167C122.625 24.3143 122.402 24.764 122.013 24.764C121.865 24.764 121.72 24.5392 121.579 24.0913C121.439 23.6416 121.368 23.2776 121.368 22.9956C121.368 22.925 121.422 22.784 121.53 22.5725C121.636 22.361 121.705 22.098 121.731 21.7797C121.785 21.2881 121.845 20.4686 121.912 19.3233C121.979 18.1799 122.026 17.2194 122.053 16.4457C121.53 16.499 120.965 16.5772 120.361 16.6839C120.093 16.7201 119.488 16.7982 118.549 16.9221C117.61 17.046 116.871 17.1241 116.335 17.1603C116.281 18.3228 116.22 19.7387 116.154 21.4119C116.087 23.0832 116.053 24.1047 116.053 24.4744C116.053 24.6154 116.07 24.8003 116.103 25.0289C116.137 25.2576 116.154 25.4329 116.154 25.5568C116.154 25.715 116.063 25.8732 115.882 26.0313C115.702 26.1895 115.557 26.2695 115.449 26.2695C115.314 26.2695 115.203 26.1552 115.116 25.9265C115.029 25.6978 114.985 25.4329 114.985 25.1337C114.985 24.9756 114.998 24.7145 115.025 24.3543C115.051 23.9941 115.072 23.6816 115.086 23.4167C115.139 22.9422 115.173 22.5553 115.186 22.2542C115.253 21.2156 115.308 20.2132 115.348 19.2432C115.388 18.2751 115.414 17.6234 115.428 17.2899C114.582 17.4843 113.783 17.5796 113.031 17.5796C112.776 17.5796 112.557 17.4957 112.377 17.328C112.196 17.1603 112.105 16.9183 112.105 16.6019C112.105 16.3733 112.149 16.2017 112.236 16.0874C112.323 15.9731 112.5 15.9159 112.77 15.9159L113.837 15.9426C114.534 15.9788 115.099 15.9959 115.529 15.9959C115.595 14.5 115.629 13.3032 115.629 12.4056C115.629 10.3646 115.616 8.53322 115.589 6.91338V5.93576C115.589 5.67086 115.667 5.45552 115.821 5.28972C115.975 5.12202 116.154 5.03817 116.355 5.03817C116.504 5.03817 116.604 5.18872 116.658 5.48792C116.711 5.78711 116.738 6.12251 116.738 6.49222C116.738 6.86192 116.703 7.67185 116.637 8.86862C116.557 10.9115 116.515 11.994 116.515 12.1159L116.414 15.8911C117.542 15.8568 119.456 15.6262 122.153 15.2051C122.207 14.6943 122.302 13.3565 122.435 11.1917C122.488 10.0483 122.536 9.21165 122.575 8.68377L122.697 6.62371C122.872 4.03578 122.959 2.41593 122.959 1.76609C122.959 1.53741 123.026 1.35255 123.161 1.21153C123.296 1.07051 123.45 1 123.625 1C123.866 1 123.988 1.30872 123.988 1.92426C123.988 2.31112 123.921 3.3421 123.786 5.0134C123.638 7.19542 123.558 8.41126 123.545 8.65709C123.465 10.012 123.387 11.306 123.313 12.539C123.239 13.772 123.189 14.5991 123.163 15.0202C123.404 14.9669 123.619 14.8887 123.807 14.782C124.049 14.6772 124.237 14.6238 124.372 14.6238C124.507 14.6238 124.661 14.7286 124.836 14.9402C125.011 15.1517 125.098 15.3004 125.098 15.3899C125.098 15.672 124.944 15.874 124.634 15.9978L124.632 15.9959Z" stroke="#FCBC86" stroke-width="2" stroke-miterlimit="10"/>
<path d="M139.395 16.9469C138.616 18.6011 137.616 19.9389 136.394 20.9603C135.171 21.9818 133.938 22.4925 132.689 22.4925C131.964 22.4925 131.278 22.2943 130.634 21.8979C129.989 21.5015 129.467 20.9165 129.063 20.1428C128.66 19.3691 128.459 18.4353 128.459 17.3433C128.459 15.4776 128.828 13.5453 129.567 11.5481C130.305 9.55092 131.333 7.6719 132.649 5.91103C132.784 5.75286 132.911 5.64614 133.031 5.59469C133.153 5.54133 133.293 5.51465 133.453 5.51465C133.588 5.51465 133.717 5.55848 133.846 5.64614C133.974 5.7338 134.038 5.84052 134.038 5.96249C134.038 6.033 134.016 6.134 133.968 6.26549C133.921 6.39699 133.89 6.48084 133.877 6.51704C133.957 6.51704 134.055 6.50371 134.17 6.47703C134.284 6.45035 134.508 6.43701 134.844 6.43701C135.234 6.43701 135.761 6.52086 136.426 6.68856C137.091 6.85626 137.578 7.02777 137.886 7.2031C138.759 7.71382 139.424 8.36938 139.88 9.16978C140.336 9.97017 140.564 10.8296 140.564 11.7444C140.564 13.5567 140.175 15.2909 139.397 16.9469H139.395ZM139.154 9.80437C138.791 9.16215 138.255 8.62856 137.542 8.2074C137.152 7.97872 136.662 7.86437 136.072 7.86437C135.884 7.86437 135.629 7.88152 135.306 7.91773L134.561 7.94441C133.917 7.94441 133.594 7.76909 133.594 7.41653C133.594 7.29266 133.599 7.17832 133.614 7.07351C133.628 6.9687 133.641 6.89818 133.654 6.86198C133.373 6.86198 133.143 6.96679 132.97 7.17832C131.869 8.67429 131.02 10.2675 130.423 11.9578C129.826 13.6482 129.527 15.2947 129.527 16.8955C129.527 18.3914 129.812 19.4796 130.383 20.1561C130.953 20.8346 131.734 21.1719 132.729 21.1719C133.856 21.1719 134.96 20.7488 136.042 19.9046C137.122 19.0603 138.002 17.9512 138.681 16.5772C139.359 15.2051 139.698 13.7778 139.698 12.2989C139.698 11.2775 139.517 10.4466 139.154 9.80437Z" stroke="#FCBC86" stroke-width="2" stroke-miterlimit="10"/>
<path d="M155.244 21.3834C155.109 21.6826 154.968 21.8332 154.822 21.8332C154.687 21.8332 154.56 21.8027 154.44 21.7417C154.318 21.6807 154.138 21.5606 153.896 21.3853C153.05 20.7336 151.942 20.1009 150.573 19.4834C149.969 19.2185 149.254 18.9422 148.429 18.6525C147.604 18.3629 146.956 18.1475 146.486 18.0065L146.627 21.412C146.64 21.8865 146.688 22.2886 146.767 22.6126C146.847 22.9385 146.889 23.1443 146.889 23.2338C146.889 23.4282 146.815 23.5902 146.667 23.7217C146.518 23.8532 146.364 23.9199 146.203 23.9199C146.001 23.9199 145.874 23.735 145.821 23.3653C145.821 23.3291 145.804 23.171 145.771 22.8908C145.737 22.6088 145.72 22.2143 145.72 21.7017C145.72 21.3682 145.693 20.6554 145.64 19.5635C145.627 19.1938 145.613 18.8374 145.6 18.4944C145.587 18.1513 145.579 17.8483 145.579 17.5835C145.539 17.5301 145.488 17.4691 145.429 17.3986C145.368 17.3281 145.319 17.2309 145.279 17.1089C145.239 16.9508 145.205 16.7831 145.178 16.6077C145.152 16.4324 145.138 16.299 145.138 16.2113C145.138 16.0875 145.165 15.9922 145.218 15.9217C145.271 15.8512 145.353 15.773 145.46 15.6835C145.38 11.2832 145.338 8.76579 145.338 8.13119C145.338 7.5671 145.344 7.04876 145.359 6.57424C145.372 6.09972 145.38 5.78147 145.38 5.62329C145.3 5.64044 145.058 5.68428 144.655 5.75479C144.252 5.8253 143.931 5.89581 143.688 5.96632C142.829 6.23121 142.175 6.48086 141.724 6.71907C141.274 6.95728 140.842 7.22598 140.426 7.52518C140.304 7.62999 140.188 7.71384 140.074 7.77673C139.96 7.83771 139.85 7.87011 139.741 7.87011C139.633 7.87011 139.54 7.80341 139.46 7.67192C139.38 7.54043 139.338 7.37653 139.338 7.18406C139.338 6.85056 139.768 6.4618 140.627 6.02158C141.486 5.58137 142.42 5.22119 143.427 4.93915C143.992 4.78098 144.709 4.64377 145.583 4.52942C146.456 4.41508 147.267 4.35791 148.02 4.35791C149.309 4.35791 150.406 4.54276 151.313 4.91247C152.219 5.28217 152.904 5.80243 153.368 6.46942C153.831 7.13832 154.063 7.90441 154.063 8.76579C154.063 9.8749 153.822 10.8258 153.339 11.6167C152.856 12.4095 152.214 13.0955 151.415 13.6768C150.617 14.258 149.531 14.9174 148.163 15.6568C147.813 15.8683 147.469 16.0627 147.125 16.238C146.783 16.4134 146.551 16.5372 146.429 16.6077C146.429 16.7125 146.435 16.7926 146.45 16.8459C147.9 17.269 149.33 17.7531 150.74 18.2981L151.162 18.4563C152.626 19.0375 153.706 19.4911 154.406 19.8169C155.103 20.1428 155.453 20.4115 155.453 20.623C155.453 20.8346 155.386 21.0899 155.251 21.3891L155.244 21.3834ZM152.465 7.15166C152.075 6.65999 151.488 6.25789 150.702 5.95107C149.917 5.64235 148.967 5.48989 147.853 5.48989C147.02 5.48989 146.497 5.50705 146.283 5.54325C146.269 5.66712 146.252 5.95679 146.231 6.41416C146.21 6.87153 146.201 7.32889 146.201 7.78626L146.281 12.0112L146.361 15.2852C146.482 15.268 146.72 15.1842 147.075 15.0336C147.431 14.885 147.729 14.7382 147.971 14.5972C149.676 13.6996 150.948 12.7982 151.788 11.8911C152.626 10.984 153.046 9.9416 153.046 8.76198C153.046 8.18074 152.852 7.64524 152.463 7.15166H152.465Z" stroke="#FCBC86" stroke-width="2" stroke-miterlimit="10"/>
<path d="M169.684 26.3326C169.75 26.588 169.824 26.7728 169.906 26.8872C169.986 27.0015 170.028 27.1025 170.028 27.1902C170.028 27.314 169.978 27.4093 169.878 27.4798C169.777 27.5504 169.667 27.5847 169.545 27.5847C169.25 27.5847 169.005 27.4741 168.809 27.255C168.615 27.0339 168.516 26.7138 168.516 26.2907C168.516 24.0725 168.53 22.2601 168.556 20.8518L168.596 18.5021C168.636 16.8651 168.657 15.6416 168.657 14.8317C167.315 18.7575 166 21.7189 164.711 23.7161C163.422 25.7133 161.979 26.7138 160.38 26.7138C159.198 26.7138 158.333 26.2392 157.782 25.2883C157.23 24.3373 156.957 22.8585 156.957 20.8518C156.957 18.1591 157.42 15.5235 158.346 12.9432C159.272 10.3648 160.464 8.26469 161.92 6.64485C163.376 5.02501 164.849 4.21509 166.34 4.21509C166.809 4.21509 167.129 4.40947 167.296 4.79633C167.463 5.18318 167.547 5.5891 167.547 6.01025C167.547 6.43141 167.517 6.79921 167.456 7.05267C167.395 7.30803 167.325 7.43572 167.245 7.43572C167.178 7.43572 167.127 7.35568 167.095 7.1975C167.06 7.03933 167.024 6.75729 166.984 6.35328C166.944 5.96642 166.876 5.68057 166.783 5.49572C166.69 5.31086 166.52 5.21939 166.279 5.21939C165.043 5.21939 163.772 6.01216 162.462 7.59579C161.152 9.17943 160.065 11.1823 159.2 13.6026C158.333 16.0228 157.901 18.3859 157.901 20.6917C157.901 22.1534 158.086 23.293 158.455 24.1106C158.823 24.93 159.493 25.3378 160.458 25.3378C161.506 25.3378 162.479 24.8004 163.378 23.7275C164.277 22.6527 165.08 21.3302 165.785 19.7541C166.49 18.1781 167.325 16.0876 168.292 13.4825C167.608 13.6578 166.648 14.0104 165.412 14.5383L164.627 14.8813L163.882 15.1976C163.386 15.4263 162.983 15.5978 162.673 15.7122C162.363 15.8265 162.108 15.8837 161.907 15.8837C161.772 15.8837 161.669 15.7998 161.595 15.6321C161.521 15.4644 161.485 15.2853 161.485 15.0909C161.485 14.8451 161.76 14.5935 162.31 14.3382C162.861 14.0828 163.686 13.7969 164.787 13.4806C165.216 13.3567 165.834 13.1471 166.64 12.846C166.775 12.7926 167.18 12.6516 167.859 12.4229C168.537 12.1942 169.011 12.0799 169.279 12.0799H169.511C169.638 12.0799 169.729 12.1466 169.783 12.2781C169.836 12.4096 169.862 12.6173 169.862 12.8994C169.862 13.0575 169.783 13.1985 169.621 13.3224L169.6 15.3558C169.56 16.7279 169.539 18.2258 169.539 19.8437V25.0463C169.566 25.6447 169.613 26.0715 169.68 26.3269L169.684 26.3326Z" stroke="#FCBC86" stroke-width="2" stroke-miterlimit="10"/>
<path d="M182.996 6.27876C182.633 6.54365 182.067 6.82379 181.295 7.12298C180.523 7.42218 179.888 7.63371 179.392 7.75758C178.613 7.95196 177.831 8.10632 177.046 8.21876C176.261 8.3331 175.754 8.3998 175.525 8.41695C175.539 9.43841 175.56 10.4904 175.586 11.5728C175.613 12.6552 175.634 13.3984 175.647 13.8044C176.17 13.7167 176.957 13.549 178.004 13.3032L178.77 13.145C179.616 12.9506 180.267 12.6 180.725 12.0892C180.966 11.8434 181.141 11.7195 181.247 11.7195C181.341 11.7195 181.419 11.7862 181.479 11.9177C181.54 12.0492 181.571 12.1864 181.571 12.3274C181.571 12.6438 181.299 12.9925 180.755 13.3699C180.211 13.7491 179.611 14.0254 178.953 14.2007C178.402 14.3589 177.786 14.5095 177.099 14.6505C176.415 14.7915 175.965 14.8792 175.75 14.9154C175.83 17.9264 176.065 20.1618 176.455 21.6215C176.845 21.7969 177.227 21.9245 177.603 22.0046C177.98 22.0846 178.462 22.1227 179.054 22.1227C179.645 22.1227 180.208 22.0217 180.746 21.8197C181.282 21.6177 181.715 21.3662 182.044 21.067C182.373 20.7678 182.538 20.4857 182.538 20.2227C182.538 20.0817 182.517 19.9464 182.477 19.813C182.437 19.6815 182.382 19.5443 182.316 19.4033C182.289 19.3499 182.245 19.268 182.185 19.1517C182.124 19.0374 182.093 18.9459 182.093 18.8754C182.093 18.7001 182.242 18.6105 182.536 18.6105C182.751 18.6105 182.936 18.7287 183.089 18.9669C183.243 19.2051 183.321 19.4643 183.321 19.7463C183.321 20.3104 183.129 20.865 182.747 21.41C182.365 21.955 181.841 22.401 181.177 22.744C180.512 23.087 179.778 23.2585 178.972 23.2585C178.166 23.2585 177.482 23.2014 176.959 23.087C176.436 22.9727 176.039 22.7478 175.771 22.4143C175.449 21.9398 175.223 21.1127 175.096 19.9331C174.968 18.7535 174.858 17.1774 174.763 15.207C174.508 15.2946 174.223 15.3708 173.908 15.4318C173.592 15.4928 173.355 15.5233 173.193 15.5233C173.031 15.5233 172.9 15.4566 172.799 15.3251C172.699 15.1936 172.649 15.0297 172.649 14.8372C172.649 14.7134 172.666 14.6086 172.701 14.5209C172.735 14.4332 172.784 14.3799 172.851 14.3627C173.294 14.2922 173.617 14.2484 173.818 14.2312L174.685 14.0997C174.632 11.8282 174.577 9.98153 174.524 8.55416C174.322 8.55416 174.161 8.56369 174.041 8.58084L173.115 8.60752C172.993 8.60752 172.9 8.56369 172.834 8.47603C172.767 8.38837 172.733 8.29118 172.733 8.18636C172.733 7.7633 172.948 7.48316 173.377 7.34214C173.539 7.30784 173.742 7.26782 173.991 7.22399C174.24 7.18016 174.404 7.15729 174.486 7.15729C174.74 6.78758 175.022 6.60273 175.332 6.60273C175.385 6.60273 175.429 6.6599 175.463 6.77424C175.497 6.88858 175.512 6.97244 175.512 7.02579C176.398 6.97244 177.453 6.84094 178.674 6.62941C179.48 6.48839 180.721 6.15489 182.399 5.62511L183.145 5.41357C183.28 5.41357 183.346 5.51839 183.346 5.72992C183.346 5.94145 183.232 6.12631 183.004 6.28448L182.996 6.27876Z" stroke="#FCBC86" stroke-width="2" stroke-miterlimit="10"/>
</svg>
