<svg width="20" height="19" viewBox="0 0 20 19" fill="none" xmlns="http://www.w3.org/2000/svg">
<path d="M14.81 5.99386L11.06 2.75528L2 10.5797V13.8183H5.75L14.81 5.99386ZM4 12.091V11.2965L11.06 5.19933L11.98 5.99386L4.92 12.091H4ZM17.71 3.48936C17.8027 3.40946 17.8762 3.31456 17.9264 3.21009C17.9766 3.10561 18.0024 2.99362 18.0024 2.88051C18.0024 2.7674 17.9766 2.6554 17.9264 2.55093C17.8762 2.44645 17.8027 2.35155 17.71 2.27166L15.37 0.250781C15.1825 0.0901403 14.9291 0 14.665 0C14.4009 0 14.1475 0.0901403 13.96 0.250781L12.13 1.83121L15.88 5.06979L17.71 3.48936ZM0 15.5455H20V19H0V15.5455Z" fill="black"/>
</svg>
